<svg id="Layer_1" data-name="Layer 1" xmlns="http://www.w3.org/2000/svg" viewBox="0 0 414.48 418.97"><defs><style>.cls-1{opacity:0.15;}.cls-2{fill:#c6c6c6;}.cls-3{fill:#272d3f;}.cls-4{font-size:90.62px;fill:#fff;font-family:MyriadPro-Regular, Myriad Pro;}</style></defs><g class="cls-1"><path class="cls-2" d="M12.19,211.26l25.7-88.82,57.42-11.7s1.9-.89-.69-3.21-9.78-11-9.78-17.88-.11-13.21-.42-14-8.25-8-8.78-17.24c0,0,.11-3.38,4.55-3.6,0,0-8.15-26.85,2.43-33.52h-3l4.76-.74-4.13-3.27h4l-.85-2.12,3.28,1.9S90.31,9.39,96,8.23s10.43-1.8,27,5.18,29.19,3,29.19,3A10.44,10.44,0,0,1,147,26.31s5.07,2.44,5.23,10.37-2.06,18.5-2.06,18.5,6.13-.21,2.75,7.62-5.71,10.57-7.09,13-1,16.6-1.48,18.19-5.07,8.35-8,12.16.1,4.85.1,4.85L192,122.22l25.8,89H190l-8.57-18.93-2,18.93h-127L49.1,190.64l-6.77,20.62Z" transform="translate(-10.52 -7.51)"/><path d="M81.4,55.79s1.42,33,4.6,40.45,14.75,22.84,26.64,22.84,31.41-15.39,31.41-24.59,2.38-35.84,2.7-37.27,3.33-.16,4.28-2.86,6.18-21.09-3.65-26.49c0,0,4.44-2.69,4.44-10.31,0,0-23.79,1.59-40.92-7.29s-22.68,6.5-22.68,6.5L83.93,13.6,85.2,18l-6-.48,6.5,2.54L80,21.37l5.39.16s-9.83-.32-8.56,17A130.49,130.49,0,0,0,81.4,55.79Z" transform="translate(-10.52 -7.51)"/><path class="cls-2" d="M96.25,29.83A5.54,5.54,0,0,1,95,36.18c-3,2.7-12.22,7.3-12.38,13S85,72.82,85,72.82l16.18,12.85S105.14,80,114,80s11.74,5.71,11.74,5.71l16.18-12.06,2.06-22s-9-13.8-9-20.46C135,31.1,112.91,40.46,96.25,29.83Z" transform="translate(-10.52 -7.51)"/><path class="cls-2" d="M113.15,99s11.79.85,12.27-1.5.1-11.22-11.21-11.22-13.86,7.92-13,10.17,3.17,2.6,4.13,2.7S113.15,99,113.15,99Z" transform="translate(-10.52 -7.51)"/><path class="cls-2" d="M423.33,222l-25.7,88.83-57.42,11.69s-1.9.89.69,3.22,9.78,11,9.78,17.87.11,13.22.42,14,8.25,8,8.78,17.23c0,0-.11,3.39-4.55,3.6,0,0,8.15,26.86-2.43,33.52h3l-4.76.74,4.13,3.28h-4l.84,2.11-3.27-1.9s-3.57,7.72-9.24,8.88-10.43,1.8-27-5.18-29.19-3-29.19-3a10.44,10.44,0,0,1,5.18-9.94s-5.07-2.43-5.23-10.36,2.06-18.51,2.06-18.51-6.13.21-2.75-7.61,5.71-10.58,7.09-13,1.05-16.6,1.48-18.19,5.07-8.35,8-12.16-.1-4.85-.1-4.85L243.56,311l-25.8-89h27.81l8.57,18.93,2-18.93h127l3.28,20.62L393.19,222Z" transform="translate(-10.52 -7.51)"/><path d="M354.12,377.44s-1.42-33-4.6-40.45-14.75-22.84-26.64-22.84-31.41,15.39-31.41,24.59-2.38,35.85-2.7,37.27-3.33.16-4.28,2.86-6.18,21.1,3.65,26.49c0,0-4.44,2.69-4.44,10.31,0,0,23.79-1.59,40.92,7.29s22.68-6.5,22.68-6.5l4.29,3.17-1.27-4.44,6,.48-6.5-2.54,5.71-1.27-5.39-.16s9.83.32,8.56-17A130.49,130.49,0,0,0,354.12,377.44Z" transform="translate(-10.52 -7.51)"/><path class="cls-2" d="M339.27,403.4a5.54,5.54,0,0,1,1.26-6.35c3-2.69,12.22-7.29,12.38-13s-2.38-23.64-2.38-23.64l-16.18-12.84s-4,5.71-12.85,5.71-11.74-5.71-11.74-5.71l-16.18,12.05-2.06,22.05s9,13.8,9,20.46C300.56,402.13,322.61,392.77,339.27,403.4Z" transform="translate(-10.52 -7.51)"/><path class="cls-2" d="M322.37,334.21s-11.79-.85-12.27,1.5-.1,11.22,11.21,11.22,13.86-7.91,13-10.17-3.17-2.6-4.13-2.7S322.37,334.21,322.37,334.21Z" transform="translate(-10.52 -7.51)"/><path class="cls-3" d="M425,7.51,399.3,96.33,341.89,108s-1.91.89.68,3.21,9.78,11,9.78,17.87.11,13.22.43,14,8.25,8,8.77,17.24c0,0-.1,3.38-4.54,3.59,0,0,8.14,26.86-2.43,33.52h3l-4.76.74,4.12,3.28h-4l.85,2.12-3.28-1.91s-3.57,7.72-9.24,8.89-10.43,1.79-27-5.19-29.18-3-29.18-3a10.42,10.42,0,0,1,5.18-9.94s-5.08-2.43-5.24-10.36,2.06-18.5,2.06-18.5-6.13.21-2.74-7.62,5.71-10.57,7.08-13,1.06-16.6,1.48-18.18,5.08-8.36,8-12.16-.11-4.85-.11-4.85L245.24,96.54l-25.81-89h27.81l8.57,18.92,2-18.92h127l3.28,20.62,6.76-20.62Z" transform="translate(-10.52 -7.51)"/><text class="cls-4" transform="translate(329.05 111.51) rotate(180)">?</text><path class="cls-3" d="M10.52,426.47l25.69-88.82L93.63,326s1.91-.89-.68-3.21-9.78-11-9.78-17.87-.11-13.22-.43-14-8.25-8-8.77-17.24c0,0,.1-3.38,4.54-3.59,0,0-8.14-26.86,2.43-33.52H78l4.76-.74-4.12-3.28h4l-.85-2.12,3.28,1.91s3.57-7.72,9.24-8.89,10.43-1.79,27,5.19,29.18,3,29.18,3a10.42,10.42,0,0,1-5.18,9.94s5.08,2.43,5.24,10.36-2.06,18.5-2.06,18.5,6.13-.21,2.74,7.62-5.71,10.57-7.08,13-1.06,16.61-1.48,18.19-5.08,8.36-8,12.16.11,4.85.11,4.85l55.51,11.23,25.81,89H188.27l-8.56-18.93-2,18.93H50.7l-3.28-20.62-6.76,20.62Z" transform="translate(-10.52 -7.51)"/><text class="cls-4" transform="translate(85.44 307.45)">?</text></g></svg>