<?xml version="1.0" encoding="utf-8"?>
<!-- Generator: Adobe Illustrator 25.2.1, SVG Export Plug-In . SVG Version: 6.00 Build 0)  -->
<svg version="1.1" id="Layer_1" xmlns="http://www.w3.org/2000/svg" xmlns:xlink="http://www.w3.org/1999/xlink" x="0px" y="0px"
	 viewBox="0 0 600.4 600.3" style="enable-background:new 0 0 600.4 600.3;" xml:space="preserve">
<style type="text/css">
	.st0{opacity:0.15;fill:#FFFFFF;}
</style>
<path class="st0" d="M600.2,325.2V324c-6.5,3.8-13.1,7.6-14.7,8.6c-10.6,6.6-18.6,12.6-24.7,19.1c-5.6,6-12.4,10.1-22.4,14.1
	c-1.5,0.6-3,1.2-4.8,1.9l-4.8,1.8c-9.8,3.8-14.8,6.3-19,10.1s-9.6,6.6-16.8,8.8c-2,0.6-4,1.2-6.5,1.8l-6.1,1.5
	c-5.3,1.4-8.3,2.4-10.5,3.8c-3.1,1.9-6.6,3.3-12.7,5c-1.6,0.5-3.2,0.9-4.8,1.4c-2,0.6-3.6,1-5.2,1.5c-3.8,1.1-7.5,2.5-11.2,4
	c-2.7,1.1-5.5,3.9-8.8,8.4c-2.2,3-4.2,6.1-6.1,9.2c-5.8,9.1-7.6,11.7-10.2,14.5c-1.4,1.5-3,2.9-4.6,4.2c-2.3,1.9-10.4,7.5-11.8,8.7
	c-1.5,1.1-2.7,2.5-3.7,4.1c-1.2,2.3-1.9,4.6-2.8,8.9c-2.2,10.6-3.5,14.8-8.2,22.1c-4.1,6.3-6.8,9.9-9.8,13l-1.5,1.5l-3.8,3.6
	c-1.7,1.6-3.2,3.1-4.9,4.9c-4.6,4.8-8,10.6-9.9,16.9c-2.5,8.1-2.7,15.5-1.8,27.2c0.3,2.7,0.5,5.5,0.5,8.2c0,10.5,0.1,17.5,0.6,25.8
	c0.2,4,0.6,7.8,1,11.2h0.9c-1.1-9.6-1.5-21.8-1.5-37c0-2.8-0.2-5.5-0.5-8.3c-0.9-11.6-0.7-18.9,1.7-26.8c1.9-6.2,5.2-11.8,9.6-16.5
	c1.7-1.8,3.2-3.3,4.8-4.9c0.6-0.6,3.1-3,3.8-3.6l1.5-1.5c3.8-4,7.1-8.4,10-13.1c4.8-7.4,6.1-11.7,8.3-22.4c0.9-4.2,1.5-6.4,2.7-8.6
	c0.9-1.5,2.1-2.8,3.4-3.9c1.4-1.1,9.4-6.8,11.8-8.7c1.7-1.3,3.2-2.8,4.7-4.3c2.7-2.9,4.6-5.5,10.4-14.7c1.9-3.1,4-6.2,6.1-9.1
	c3.2-4.3,5.9-7,8.4-8.1c3.6-1.5,7.3-2.9,11.1-4c2.5-0.8,5.1-1.5,7.6-2.2l2.4-0.7c6.2-1.8,9.8-3.2,13-5.1c2.1-1.3,5.1-2.3,10.3-3.6
	l6.1-1.5c2.5-0.6,4.5-1.2,6.5-1.8c7.2-2.3,12.8-5.1,17.1-9c4.1-3.7,9-6.2,18.7-9.9l4.8-1.8c1.9-0.7,3.4-1.3,4.8-1.9
	c10.1-4.1,17.1-8.3,22.8-14.4c6-6.5,14-12.4,24.5-18.9C587.6,332.6,593.9,328.9,600.2,325.2l0-64.6c-4,8.1-8.5,14.9-12.7,17.9
	c-2.5,1.8-5.4,4-9,6.9c-2.1,1.7-4.2,3.3-6.2,5l-1.3,1c-1.6,1.3-3.2,2.6-4.9,3.9c-7.5,6-12.9,10-17.6,13.2c-3.1,2.1-3.9,2.8-8.1,7.1
	c-5.8,6.1-11.7,8.6-29.1,11c-11.3,1.5-20,4.9-30.8,11.1c-1.6,0.9-7.3,4.3-7,4.1c-2.7,1.6-4.7,2.7-6.6,3.7
	c-5.6,2.8-10.5,4.2-15.7,4.2c-17.1,0-41.4,11.5-51.6,22.8c-12,13.4-31.4,27.7-45.2,31.2c-7.4,1.9-11.9,7-14,14.7
	c-1.3,4.4-1.6,8.3-1.6,13.8c0,0.8,0,1,0.2,3.6c0.6,4.4,0.3,9-0.8,13.3c-1.5,6.2-4.9,12.6-10.6,19.4c-13.9,16.6-22.9,46.6-22.9,71.7
	c0,2.4,0,4.3,0.1,8.8c0.1,10.8,0.1,15.8-0.2,22c-0.6,11.2-2.1,20.7-5,29.3h-1c2.9-8.6,4.5-18.1,5-29.3c0.3-6.1,0.3-11.1,0.2-21.9
	c0-4.5-0.1-6.4-0.1-8.8c0-25.3,9.1-55.5,23.1-72.3c5.6-6.7,8.9-13,10.4-19c1-4.2,1.3-8.6,0.7-12.9c-0.2-2.7-0.2-2.9-0.2-3.7
	c0-5.6,0.3-9.6,1.6-14.1c2.3-8,7-13.4,14.8-15.4c13.6-3.4,32.8-17.6,44.8-30.8c10.4-11.5,35-23.2,52.4-23.2c5.1,0,9.8-1.3,15.3-4.1
	c1.9-1,3.9-2,6.6-3.6c-0.3,0.2,5.3-3.2,7-4.1c10.8-6.2,19.7-9.7,31.1-11.2c17.2-2.3,22.9-4.8,28.6-10.6c4.2-4.4,5-5.2,8.2-7.3
	c4.7-3.1,10-7.1,17.5-13.1c1.6-1.3,3.2-2.6,4.9-3.9l1.3-1c2.1-1.7,4.2-3.3,6.2-5c3.7-2.9,6.5-5.1,9.1-7c4.4-3.2,9.2-10.6,13.3-19.4
	L600.2,325.2L600.2,325.2z M600.2,209c-0.6,0-1.3,0.1-2,0.1c-6.1,0.6-13.8,3.4-21.8,7.4c-3.6,1.8-8.5,2.7-14.2,2.7
	c-4.9,0-9.8-0.5-14.7-1.3c-1.7-0.3-3.3-0.6-4.7-0.9c-1.2-0.3-2.4-0.4-3.5-0.6c-5.5-0.5-11.1-0.8-16.7-0.9c-10.4-0.2-17.2,0.7-18,2.7
	c-0.4,1,0.6,2.6,3,4.9c1,1,2.2,2,4,3.6c1.6,1.3,3.2,2.7,4.8,4c1.6,1.3,3.5,2.1,5.5,2.5c0.9,0.2,1.7,0.4,2.6,0.5
	c3.5,0.7,5,1.2,6.2,2.6c1.4,1.8,1.4,4.5-0.2,8.9c-2.4,6.8-5.7,10.1-10.2,10.3c-3.6,0.2-7.6-1.3-14.5-5.1c-4.5-2.5-6.8-7.3-8.3-15.3
	c-0.2-0.9-0.3-1.8-0.5-2.9l-0.4-2.8c-1-6.6-1.9-9.2-3.7-10.1c-0.8-0.4-1.6-0.7-2.4-1c-2.6-0.8-5.4-1.1-8.1-0.9
	c-2.3,0.1-14.7,1-13.8,0.9c-20.5,1.4-28.8,5.1-37.1,15c-1.5,1.8-2.9,3.6-4.2,5.4l-2.3,3.1l-2.5,3.3c-3,4.1-6.5,7.9-10.4,11.1
	c-0.6,0.5-1.3,1-2.1,1.6l-4.1,2.9c-1.8,1.3-3.5,2.6-5.2,4c-5.7,4.8-11.1,10-16.2,15.4c-8.2,8.6-11.8,13.5-11.7,16
	c0.1,1.6,1.6,2.1,6.8,2.4c1.6,0.1,2.1,0.1,3,0.2c2.4,0,4.7,0.6,6.8,1.7c7.5,4.1,11.6,7.3,14,11.6c3.3,6.1,0.8,12.9-8.9,20.3
	c-8.3,6.3-11.1,10.4-11.3,15c-0.1,1.5,0,2.9,0.3,4.4c0.7,6.5,0.2,10.6-2.8,17.4c-1.1,2.7-2.5,5.2-4.2,7.5c-2.8,4-5.5,5.7-10.6,7.7
	c-0.4,0.2-3.3,1.2-4.3,1.6c-1.8,0.7-3.4,1.4-5,2.1c-4.6,2.3-9,5-13.1,8.2c-8.4,6.5-13.2,14.6-16,25.1c-1.1,4.2-1.5,6.8-2.8,15.2
	c-1.3,8.6-2.2,12.6-4.1,16.5c-2.1,4.3-11.9,26.6-13,28.9c-2,4.5-4.2,9-6.4,13.4c-4.1,8.1-7.6,14.1-10.7,17.8
	c-5.4,6.5-9,14.4-13.8,28.4c-0.6,1.9-1.3,3.7-1.9,5.6c-1.8,5.3-3,8.6-4.3,11.8c-6.1,15.3-25.4,26.3-46.5,26.3
	c-11.2,0-20.6-2.7-31-8.5c-5.6-3.1-4.6-2.4-22.3-14.5c-14.3-9.8-17.7-10.7-20.5-6.9c-0.7,0.9-1.3,1.8-1.8,2.8
	c-1.5,2.1-3.1,4-4.9,5.9c-0.7,0.8-5.5,5.9-7,7.5c-2.4,2.6-4.3,4.8-6,6.9c-1.9,2.4-3.6,5-5.1,7.7c-1.3,2.6-1.9,5.2-2.7,10.6
	c-0.2,1.1-0.3,2.1-0.5,3.2h-1l0.5-3.3c0.8-5.5,1.4-8.2,2.8-10.9c1.5-2.8,3.2-5.4,5.2-7.8c1.7-2.1,3.6-4.4,6-7c1.4-1.6,6.2-6.7,7-7.5
	c1.8-1.8,3.4-3.7,4.8-5.8c0,0,1.5-2.3,1.9-2.8c3.2-4.5,7.1-3.4,21.8,6.7c17.7,12.1,16.6,11.4,22.2,14.5c10.3,5.7,19.5,8.4,30.5,8.4
	c20.6,0,39.6-10.8,45.5-25.7c1.5-3.9,2.9-7.8,4.2-11.8c0.6-1.9,1.3-3.7,1.9-5.6c4.8-14.2,8.5-22.1,14-28.7c3-3.7,6.6-9.6,10.6-17.6
	c2-3.9,4-8.3,6.4-13.4c1-2.3,10.9-24.6,13-28.9c1.9-3.8,2.8-7.8,4-16.2s1.7-11.1,2.8-15.3c2.8-10.7,7.7-18.9,16.3-25.6
	c4.1-3.3,8.6-6.1,13.3-8.4c1.7-0.8,3.3-1.5,5.1-2.2c0.9-0.4,3.9-1.4,4.3-1.6c5-1.9,7.4-3.5,10.1-7.3c1.6-2.3,3-4.8,4.1-7.4
	c3-6.6,3.4-10.6,2.7-16.9c-0.2-1.5-0.3-3.1-0.3-4.6c0.2-4.9,3.2-9.2,11.7-15.7c9.3-7.1,11.7-13.3,8.6-19c-2.2-4.1-6.2-7.1-13.5-11.2
	c-2-1-4.2-1.5-6.4-1.6c-0.8-0.1-1.3-0.1-3-0.2c-5.8-0.3-7.6-0.9-7.7-3.3c-0.1-2.8,3.5-7.9,12-16.7c5.2-5.5,10.6-10.6,16.3-15.5
	c1.8-1.5,3.4-2.7,5.2-4l4.1-2.9c0.8-0.6,1.5-1.1,2.1-1.6c3.9-3.2,7.3-6.8,10.2-10.9c0.8-1.1,1.7-2.2,2.5-3.3l2.3-3.1
	c1.8-2.4,3-4,4.3-5.5c8.5-10.2,17-14,37.3-15.3c-0.4,0,12-0.9,14.3-1c2.9-0.2,5.7,0.2,8.5,1c0.8,0.3,1.6,0.6,2.5,1
	c2.3,1.1,3.2,3.9,4.3,10.9l0.4,2.8c0.2,1.1,0.3,2,0.5,2.8c1.4,7.7,3.6,12.3,7.8,14.6c6.8,3.7,10.6,5.1,14,4.9c4-0.2,7-3.2,9.3-9.7
	c1.5-4,1.5-6.5,0.3-7.9c-0.9-1.1-2.3-1.6-5.6-2.3c-0.9-0.2-1.8-0.4-2.7-0.6c-2.2-0.4-4.2-1.3-5.9-2.7c-1.6-1.4-3.2-2.7-4.8-4
	c-1.4-1.2-2.8-2.4-4.1-3.6c-2.7-2.6-3.9-4.4-3.3-5.9c1-2.6,7.8-3.5,18.9-3.4c5.6,0.1,11.2,0.4,16.7,0.9c2.8,0.4,3.2,0.5,3.7,0.6
	c1.4,0.3,3,0.6,4.6,0.9c4.8,0.9,9.7,1.3,14.6,1.3c5.6,0,10.2-0.9,13.7-2.6c8.1-4.1,15.9-6.9,22.2-7.6c0.7-0.1,1.3-0.1,2-0.1
	L600.2,209L600.2,209z M600.2,108v1.5c-8.6,16.1-17.3,29.6-23.7,35.9c-3.2,3.2-7.6,4.9-13.5,5.6c-4.5,0.5-8.3,0.4-19.2-0.2
	c-9.9-0.6-15.3-0.4-20.5,0.8c-4.9,1.2-9.9,1.9-15,2.1l-2.2,0.1c-12.5,0.8-19.4,1.8-32.7,5.7c-4.5,1.3-9.3,2.5-14.3,3.5
	c-10.8,2-21.7,3.4-32.6,4c-7.6,0.4-13.2,0.6-20.2,0.6c-6.4,0.1-12.6,1.9-18,5.2c-8.3,4.9-15.1,12.9-19.5,24.5
	c-1.3,3.4-2.8,6.7-4.6,9.8c-3.6,6.2-6.9,9-13.4,12.2l-4,2c-5.5,2.7-10.6,6.1-15.2,10.2c-8.2,7.3-13.7,16.6-22.5,35.6l-2.1,4.5
	c-7.3,15.7-11.5,23.3-17.4,29.9c-7.7,8.7-20.2,14.4-40.3,20.1c-4.4,1.2-19,5.1-19.2,5.1c-5.3,1.3-10.5,3-15.6,4.9
	c-10.6,4.2-18.7,10.5-36.4,26.5l-1.7,1.5c-6,5.6-12.3,10.9-18.8,15.9c-3.9,2.9-8,5.7-13,8.9c-2.1,1.3-10.3,6.6-12.3,7.9
	c-11.5,7.5-18.5,13-24.6,20.1c-2.4,2.7-4.6,5.7-6.4,8.9c-4.1,6.9-6.3,13.1-9.2,25.1l-1.5,6.3c-0.6,2.5-1.2,4.5-1.7,6.6
	c-3,10.7-6.9,17.4-14.8,26.9l-4.1,5c-1.4,1.7-2.8,3.5-4.2,5.3c-1.5,1.9-2.6,4-3.4,6.3c-1.2,3.2-1.5,5.9-1.9,11.9
	c-0.6,10-1.4,15-4.6,22.7c-1.6,3.7-5.7,14-6.4,15.8c-1.1,2.5-2.3,5-3.6,7.4c-2.9,5.1-6.7,10.1-13.1,17c-6,6.4-8.9,10.9-10.6,16
	c-0.5,1.6-1,3.2-1.4,4.8l-0.5,1.8h-1l0.5-2.1c0.4-1.7,0.8-3.3,1.4-4.9C23,588,26,583.3,32,576.8c6.4-6.8,10.1-11.7,13-16.8
	c1.3-2.4,2.5-4.8,3.5-7.3c0.8-1.8,4.8-12.1,6.4-15.8c3.2-7.5,4-12.4,4.6-22.3c0.3-6.1,0.7-8.9,1.9-12.2c0.9-2.3,2.1-4.5,3.6-6.5
	c1.3-1.7,2.6-3.4,4.2-5.3l4.1-5c7.8-9.5,11.7-16,14.6-26.5c0.6-2,1.1-4.1,1.7-6.6l1.5-6.3c3-12,5.1-18.4,9.3-25.4
	c1.9-3.2,4.1-6.2,6.5-9c6.2-7.1,13.2-12.7,24.8-20.3c2.1-1.3,10.3-6.6,12.3-7.9c5-3.2,9-6,12.9-8.9c6.5-4.9,12.7-10.2,18.7-15.8
	l1.7-1.5c17.8-16.1,26-22.4,36.7-26.7c5.2-2,10.4-3.6,15.8-5c0.2-0.1,14.9-3.9,19.2-5.1c19.9-5.6,32.3-11.3,39.8-19.8
	c5.8-6.5,9.9-14,17.2-29.6l2.1-4.5c8.9-19.1,14.4-28.5,22.8-35.9c4.6-4.2,9.8-7.7,15.4-10.4l4-2c6.3-3.1,9.5-5.8,13-11.8
	c1.7-3.1,3.2-6.4,4.5-9.7c4.6-11.8,11.5-20,20-25c5.6-3.4,12-5.2,18.5-5.3c7,0,12.6-0.1,20.2-0.6c10.9-0.6,21.8-1.9,32.5-4
	c5-1,9.8-2.1,14.2-3.4c13.4-4,20.4-5,32.9-5.8l2.2-0.1c5-0.3,9.9-1,14.8-2.1c5.3-1.2,10.8-1.4,22.6-0.7c9,0.5,12.8,0.6,17.2,0.1
	c5.7-0.6,9.9-2.3,13-5.3C582.3,138.3,591.2,124.4,600.2,108L600.2,108z M600.2,558.2c-1.3-4.6-2.2-10.5-3.3-20.2l-0.2-2l-0.2-2
	c-1.8-15.7-3.1-22-5.5-24.5c-2.4-2.5-3-5-2.5-8.6c0.1-0.6,0.2-1.1,0.4-2.1c0.7-3.5,0.8-5,0.1-6.8c-0.9-2.4-3.3-4.4-7.8-6.3
	c-5.1-2.1-6.5-4.8-4.9-8.4c0.9-1.8,2.1-3.5,3.5-5c1-1.2,5.5-6,5.1-5.5c6.2-6.7,9-11.3,9-16.5c-0.1-5.1,2.3-10,6.5-12.9v1.3
	c-3.6,2.8-5.6,7.1-5.5,11.6c0,5.5-2.9,10.3-9.2,17.2c0.4-0.4-4,4.3-5.1,5.5c-1.4,1.4-2.5,3-3.4,4.8c-1.4,3-0.2,5.2,4.4,7.1
	s7.3,4.2,8.3,6.8c0.8,2,0.7,3.7,0,7.4c-0.2,1-0.3,1.5-0.4,2.1c-0.5,3.3,0,5.6,2.2,7.8c2.7,2.7,4,9,5.8,25.1l0.2,2l0.2,2
	c0.8,7,1.5,12.1,2.3,16L600.2,558.2L600.2,558.2z M600.2,496.1c-1.4-3.1-4.4-9.9-5-11.2c-1-2.5-1.2-3.8-0.9-5.2
	c0.2-0.8,2-4.7,2.3-5.3c1.5-3.6,2.7-7.4,3.5-11.2v4c-0.7,2.6-1.6,5.1-2.6,7.6c-0.3,0.8-2.1,4.5-2.3,5.2c-0.3,1.1-0.1,2.2,0.9,4.6
	c0.4,1,2.5,5.7,4,9.1L600.2,496.1L600.2,496.1z M600.2,411c-1.9,1.8-4,3.2-6.4,4.1c-0.2,0.1-14,5.5-20.4,8.4
	c-9.3,4.3-16.7,5.9-23,5.2c-5.1-0.5-9-2.2-14.8-5.9l-3.2-2.1c-1.8-1.2-3.6-2.3-5.4-3.3c-4-2.2-3.2-5.8,1.5-10.5
	c3.7-3.7,9.6-7.9,18.7-13.8l4.5-2.8c18-11.3,18.2-11.5,22.3-14.7c11.2-9,19.7-14,26.3-15.1v1c-6.4,1.1-14.6,6-25.7,14.9
	c-4.1,3.3-4.3,3.4-22.4,14.8c-1.5,0.9-3,1.9-4.5,2.8c-9.1,5.8-14.9,10-18.6,13.7c-4.3,4.3-5,7.1-1.7,8.9c1.7,0.9,3.3,1.9,5.5,3.3
	l3.2,2.1c5.6,3.6,9.5,5.2,14.3,5.8c6.1,0.6,13.3-0.9,22.5-5.1c6.5-3,20.2-8.4,20.4-8.4c2.6-1,4.9-2.6,6.8-4.7L600.2,411L600.2,411z
	 M600.2,369.6v1c-6.6,0.3-12.1,3.1-19.7,9.1l-4.6,3.7c-1.4,1.1-2.9,2.2-4.4,3.1c-0.8,0.5-5.5,3.3-6.2,3.8c-3.3,2-6.2,3.8-8.9,5.6
	s-5.5,3.8-8.2,5.9c-4.6,3.7-7.4,6.9-8,9.4c-0.6,2.7,1.5,4.5,7,5.5c10.4,1.7,21.1,0.1,30.5-4.6c6.3-3.1,12.1-7.2,17.1-12.2
	c2.1-2.3,3.9-4.7,5.4-7.4v1.9c-1.3,2.2-2.9,4.3-4.6,6.2c-5,5.1-10.9,9.3-17.4,12.4c-9.6,4.8-20.4,6.4-31,4.7c-6.1-1-8.7-3.3-7.8-6.7
	c0.6-2.7,3.5-6,8.3-9.9c2.3-1.9,5.1-3.9,8.2-6c2.7-1.8,5.6-3.6,8.9-5.6c0.7-0.4,5.4-3.2,6.2-3.8c1.3-0.8,2.6-1.8,4.3-3.1
	c0.8-0.6,3.9-3.1,4.6-3.7C587.6,372.8,593.4,369.9,600.2,369.6L600.2,369.6z M600.2,215v1c-1.8-0.2-4.3,0.2-7.8,1.6
	c-10,3.8-13.8,5.1-19.2,6.8c-1.8,0.6-2.6,0.8-3.9,1.2c-2.2,0.6-4.4,1-6.7,1.2l-2.6,0.3c-7.8,0.9-11.3,2.5-11.3,6.1
	c0,4.4,2.9,13.2,8,25.8c1,2.5,1.7,5,2.3,7.6c0.3,1.2,0.6,2.3,0.8,3.5c1.9,7.6,3.2,10.7,5.6,11.7c2.2,0.9,4.7,0.6,7.5-0.7
	c3.5-1.7,7.2-4.9,11.2-9.5c1.5-1.7,3-3.5,4.6-5.6l3.2-4.1c2.6-3.2,6.1-12.2,8.4-20.2v3.4c-2.3,7.2-5.3,14.5-7.6,17.4
	c-0.4,0.5-2.7,3.5-3.2,4.1c-1.6,2.1-3.1,3.9-4.6,5.6c-4.1,4.6-7.9,7.9-11.5,9.7c-3,1.4-5.8,1.8-8.3,0.7c-2.8-1.1-4.2-4.3-6.2-12.4
	c-0.3-1.2-0.6-2.3-0.8-3.5c-0.6-2.5-1.4-5.1-2.3-7.5c-5.1-12.8-8-21.6-8-26.2c0-4.4,3.8-6.1,12.2-7.1l2.7-0.3
	c3.5-0.4,5.2-0.6,6.5-1.1s2.1-0.7,3.9-1.3c5.3-1.7,9.1-3,19.1-6.7C594.7,215.4,597.5,214.9,600.2,215L600.2,215z M0.2,292.1
	c10.1-11.3,18.1-23.2,23.1-35.4c3.3-8.1,6.1-16.1,10.8-30.6l1.6-4.8c6.5-19.9,10.1-29.8,14.8-39.6c6.1-12.7,12.5-21.2,20.3-25.5
	c6.7-3.8,10.2-7.9,12.2-13.1c0.8-2.1,1.4-4.4,1.9-6.6c1.2-5.2,2.1-7.6,3.9-10.4c2.4-3.6,6.3-6.5,12.1-9c15.8-6.6,16.7-7,18-9
	c0.7-1,0.8-2.2,0.7-4.5c0-0.7-0.2-3.8-0.2-4c-0.1-1.8-0.2-3.7-0.2-5.5c0-10,0.2-11.4,2.4-13.2c0.6-0.5,1.4-0.9,2.1-1.3
	c1-0.4,1.9-0.9,2.8-1.5c3.2-1.7,6.2-3.7,9.1-5.9c2.1-1.5,2.6-2.1,8-7.9c3.8-4.1,6.2-6.4,9-8.1c3.6-2.3,7.2-3.1,10.9-2.1
	c4.4,1.2,10.8,2,18.8,2.5c6.9,0.4,12.9,0.5,21.9,0.5c5.2,0.1,10.3,0.6,15.4,1.6c7.8,1.3,9.3,1.5,12.4,1.5c3.8,0.1,7.5-0.9,10.7-3
	c5.1-3.2,8.1-4.7,11.2-5.2c3.6-0.6,4.8-0.5,16.6,2.1c17.3,3.7,30.9,1.4,41.1-9.7c5.1-5.5,5.5-8.9,3.5-14.8c-0.5-1.4-0.9-2.8-1.2-4.3
	c-0.3-2.5,0.5-4.7,2.7-6.9c2.6-2.6,4.7-9.2,6.2-18.3h2c-1.6,9.7-3.8,16.6-6.8,19.7c-1.8,1.8-2.4,3.4-2.1,5.3
	c0.2,1.3,0.6,2.7,1.1,3.9c2.2,6.5,1.8,10.7-3.9,16.8c-10.8,11.7-25.1,14.1-43,10.3c-11.4-2.5-12.5-2.6-15.8-2.1
	c-2.8,0.5-5.6,1.8-10.5,4.9c-3.5,2.2-7.6,3.4-11.8,3.3c-3.2,0-4.8-0.2-12.7-1.6c-4.9-1-10-1.5-15-1.5c-9.1,0-15.1-0.1-22.1-0.5
	c-8.1-0.5-14.6-1.3-19.2-2.5c-5.6-1.5-10.2,1.4-17.9,9.7c-5.5,5.9-6.1,6.5-8.3,8.2c-2.9,2.3-6.1,4.3-9.4,6c-0.7,0.4-2.6,1.3-2.8,1.5
	c-0.6,0.3-1.2,0.7-1.8,1.1c-1.5,1.2-1.6,2.4-1.6,11.6c0,1.8,0.1,3.5,0.2,5.4c0,0.2,0.2,3.3,0.2,4c0.1,2.8-0.1,4.3-1.1,5.7
	c-1.7,2.5-2.3,2.8-19,9.7c-5.5,2.3-9,5-11.2,8.2c-1.7,2.5-2.5,4.7-3.6,9.7c-0.5,2.3-1.1,4.6-1.9,6.8c-2.2,5.7-6.1,10.2-13.1,14.2
	c-7.3,4.1-13.5,12.3-19.5,24.7c-4.6,9.6-8.2,19.5-14.7,39.3l-1.6,4.8c-4.8,14.5-7.5,22.5-10.9,30.7c-5.2,13.1-13.8,25.7-24.8,37.7
	V292.1z M0.2,370.1v-0.5h1c6.3,0,7.5,5.2,4.6,13.4c-1.5,4-3.3,7.7-5.6,11.3v-1.9c1.8-3.1,3.4-6.3,4.7-9.7c2.7-7.6,1.7-12-3.7-12h-1
	v-46.6c4.6-2.7,9.2-5.5,13.7-8.3c13.7-9.5,29.8-37.6,29.8-53.6c0-18.1,21.6-72.6,32.2-79.4c12.7-8.1,32.2-28,35.8-37.8
	c1.9-5.3,5.5-7.3,14.4-9.4c6.1-1.4,8.6-2.4,10.7-4.8c1.5-1.7,2.7-4.8,4.3-10.3c0.2-0.8,1.9-6.7,2.4-8.5c3.6-12.1,7.3-18.5,13.5-20.4
	c2.5-0.8,3-1,9.7-3.7c7.5-3,12-4.4,17.1-4.9c6.8-0.7,13.1,0.8,19.6,4.7c5.4,3.3,12.2,4.7,20.2,4.6c6.7-0.3,13.3-1.2,19.8-2.8
	c1.8-0.4,7.4-1.7,8.3-1.9c1.8-0.5,3.6-0.8,5.5-0.9c5,0,8.9-0.1,14.2-0.3c7.9-0.3,15.6-0.9,22.8-1.9c7.4-0.9,14.8-2.5,21.9-4.8
	c18.9-6.6,32.6-18.3,33.7-27.6c0.3-2.6,0.4-3,2.8-11.1s3.2-12.9,2.7-18.2c-0.2-2.2-0.7-4.3-1.5-6.4c-1.5-3.9-2.6-9.4-3.4-16.2h0.9
	c0.5,5.4,1.7,10.7,3.5,15.8c0.8,2.2,1.3,4.4,1.5,6.7c0.5,5.5-0.4,10.5-2.8,18.6s-2.5,8.5-2.7,11c-1.1,9.8-15.1,21.7-34.3,28.4
	c-7.2,2.3-14.6,4-22.1,4.9c-7.2,1-14.9,1.6-22.8,1.9c-5.3,0.2-9.3,0.3-14.2,0.3c-1.8,0.1-3.6,0.4-5.3,0.9c-0.9,0.2-6.4,1.5-8.3,1.9
	c-6.6,1.6-13.3,2.5-20,2.8c-8.1,0.2-15.1-1.3-20.7-4.7c-5.6-3.6-12.3-5.2-18.9-4.5c-5,0.5-9.4,1.9-16.8,4.9
	c-6.8,2.7-7.3,2.9-9.8,3.7c-5.7,1.8-9.3,8-12.8,19.7c-0.5,1.8-2.2,7.7-2.4,8.5c-1.7,5.7-2.9,8.8-4.5,10.7c-2.2,2.6-4.8,3.6-12,5.3
	c-7.8,1.8-11.1,3.7-12.9,8.5c-3.7,10-23.3,30.1-36.2,38.2c-10.7,6.4-32.1,60.6-32.1,78.4c0,16.3-16.3,44.8-30.2,54.4
	c-2.1,1.5-8.2,5.1-14.3,8.7C0.2,325.2,0.2,370.1,0.2,370.1z M0.2,196.4v-1.1c7.4-3.8,14.6-10.2,21.8-19c3.8-4.6,14.2-18.8,15.8-20.6
	c2.2-2.4,4.7-4.5,7.4-6.4c1.1-0.8,4.9-3.6,5.5-4c9.4-6.9,14-12,16-19.4c0.8-3,1.5-6.8,2.5-12.3c0.2-1.4,2-12.5,2.6-15.8
	c2.8-16.7,5.7-26.7,10-32c10.8-13.2,19.9-27.5,19.9-32.7c0-2.5,0.3-3.4,6.1-15.7c0.7-1.5,1.2-2.7,1.8-3.9c2.5-5.8,3.9-10,4.1-13.4h1
	c-0.2,3.5-1.7,7.9-4.2,13.8c-0.5,1.2-1.1,2.4-1.8,3.9c-5.5,12-5.9,13-5.9,15.3c0,5.5-9.1,19.8-20.1,33.3c-4.2,5.1-7,15.1-9.9,31.6
	c-0.6,3.3-2.3,14.3-2.6,15.8c-0.6,4.2-1.5,8.3-2.5,12.4c-2.1,7.7-6.8,12.9-16.3,19.9l-5.5,4c-2.7,1.8-5.1,3.9-7.3,6.3
	c-1.5,1.7-11.9,15.9-15.8,20.5C15.3,186,7.9,192.6,0.2,196.4z M0.2,558.2v-4.3c0.4,2.1,1,4.2,1.6,6.2c2,6,4.6,8.3,8.2,6.6
	c19-8.9,33.7-24.1,33.7-39.5c0-16.2,6.4-32,17.1-46.3c1.6-2.2,3.5-4.2,5.5-6c0.7-0.6,1.5-1.2,2.3-1.8l2-1.4
	c3.7-2.7,5.3-5.3,7.1-12.6c0.8-3.1,1.4-5,4.2-13.3l0.6-1.9c3.2-9.6,4.6-15,4.2-18.6c-0.5-4.4-3.8-5.2-11.3-1.6
	c-3,1.4-6.1,2.7-9.2,3.7c-13.9,4.7-27,5.8-42.7,5.4H20c-5.2,0-10.3,1-15.1,3c-1.8,0.7-3.4,1.7-4.9,2.9v-1.3c1.4-1,3-1.9,4.6-2.6
	c5.4-2.2,11.1-3.2,16.9-3h2c15.6,0.4,28.6-0.8,42.3-5.4c3.1-1,6.1-2.2,9-3.6c8-3.8,12.2-2.9,12.7,2.4c0.4,3.9-0.9,9.3-4.2,19.1
	l-0.6,1.9c-2.8,8.2-3.4,10.1-4.2,13.2c-1.8,7.5-3.6,10.3-7.5,13.2l-2,1.4c-0.8,0.5-1.5,1.1-2.2,1.8c-2,1.7-3.8,3.7-5.4,5.8
	c-10.4,13.9-16.7,29.5-16.7,45.5c0,16-15,31.5-34.3,40.5c-4.3,2-7.4-0.7-9.6-7.2C0.6,559.7,0.4,559,0.2,558.2z M0.2,496.1v-2.5
	l1.5,3.3c2.2,5.4,3.7,11,4.3,16.8c0.7,5.3,0.8,9.3,1,18.5s0.5,12.8,1.6,15c1.3,2.6,3.7,2.3,8.3-1.5c17.1-14.3,21.8-22.9,21.8-38.6
	c0-7.2,1.1-12.4,3.7-17.7c2.3-4.7,3.7-6.6,13.4-19.6c2.3-3.1,4.8-6.1,7.6-8.8c1.1-1.1,2.3-2.1,3.5-3.1c0.4-0.3,0.6-0.5,0.9-0.7
	c1.1-0.9,2-2,2.6-3.3c0.9-1.9,1.7-3.9,2.3-5.9l0.4-1.2l0.4-1.1c0.3-0.9,0.5-1.5,0.7-2.2c0.4-1.5,0.7-2.7,0.9-3.7
	c0.4-2.2,0.1-3.5-0.8-4.1c-2.3-1.6-9.3-0.2-23.8,4.9c-9.5,3.4-16.1,4.2-27.9,4.3c-7.7,0.1-10.4,0.4-13.2,2.1
	c-3.5,2.1-5.8,6.4-7.6,14.3c-0.5,2.2-1,4.2-1.5,6v-4l0.5-2.2c1.8-8.1,4.3-12.6,8-14.9c3-1.9,5.9-2.2,13.8-2.3
	c11.6-0.1,18.1-0.8,27.5-4.2c14.9-5.3,22-6.7,24.7-4.8c1.4,0.9,1.7,2.6,1.3,5.1c-0.2,1.3-0.6,2.5-0.9,3.8l-0.7,2.2l-0.4,1.1
	l-0.4,1.2c-0.6,2.1-1.4,4.1-2.3,6.1c-0.7,1.4-1.7,2.6-2.9,3.6l-0.9,0.8l-1,0.8c-0.9,0.7-1.7,1.4-2.5,2.2c-2.7,2.7-5.2,5.6-7.5,8.7
	c-9.7,12.9-11.1,14.9-13.3,19.5c-2.5,5.1-3.6,10.2-3.6,17.2c0,16-4.8,24.9-22.2,39.4c-5,4.2-8.2,4.5-9.8,1.2
	c-1.2-2.5-1.5-5.9-1.7-15.5c0-6.1-0.4-12.3-1-18.4c-0.6-5.7-2-11.2-4.2-16.5L0.2,496.1z M379.5,0.1h1l1.5,5.3
	c3.3,11.6,4.9,19.3,5.3,27.8c0.6,10.8-1.6,21.6-6.6,31.2c-7.8,15.1-20.5,26.5-36.2,34.1c-12.4,6-26.1,9.2-36.2,9.2
	c-6.8,0-17.2,1.4-37.3,4.6l-2.3,0.4c-24.5,4-31.6,5-37.5,5c-3.5,0-4.1-0.1-19.5-2.8c-3.6-0.6-6.3-1.1-9-1.5c-20.2-3-31-1.2-32,7.9
	c-0.1,0.8-0.2,1.7-0.3,2.8l-0.3,2.7c-1.1,10.9-2,15.7-4.3,20c-2.9,5.3-7.8,7.9-15.6,7.9c-10.2,0-12.9,0.6-15.5,3.2
	c-2.6,3.1-5.3,6-8.2,8.7c-2.8,2.5-14.3,12.6-15.8,13.8c-2.2,1.9-4.4,3.9-6.5,5.9c-7,6.5-11.8,11.8-14.6,16.1
	c-5.9,9.3-10.5,18-11.7,24.1c-1.7,8.3,3.7,9.5,19,1.2c14.6-7.9,29.4-15.2,44.5-21.9c3.5-1.6,14-6.2,15.7-6.9
	c5.1-2.2,8.3-3.8,10.8-5.1l1.9-1.1l2.2-1.2c1.8-0.9,3.4-1.8,5-2.6c18.1-8.7,34.5-10.5,50.3-1.2c22.9,13.3,38.3,37,38.3,56.4
	c0,19.1-0.7,25.1-5.2,33.2c-1.4,2.5-3.1,4.9-4.9,7.1c-6.5,7.8-11.8,16.2-12.8,21.3c-1.2,6.3,4.7,7,20.2,0
	c13.3-6.1,22.4-15,28.5-26.3c2.5-4.8,4.6-9.9,6.1-15.1c0.9-3,3.2-11.6,3.4-12.5c0.4-1.7,1-3.3,1.8-4.8c7.5-14.9,21.1-30.5,36.2-37.2
	c7.6-3.4,13-9.6,19.4-20.8c0.8-1.5,4.3-7.6,5.1-9.2c3.5-6.1,6.2-9.7,9.4-12c10.1-7.4,28.7-11.1,50.3-11.1c7.5,0,16.5-1.2,27.5-3.6
	c5-1.1,10-2.3,15-3.5c-1.3,0.3,15.5-4,19.4-4.9c14.1-3.3,41.1-5,64.1-5c17.4,0,27.8-9.2,38.5-38.7c6.6-18.2,6.6-26.4,2.7-34.3
	l-1.2-2.4c-1-1.9-1.5-4-1.5-6.1c0-4,0-4,2.5-24.6c0.5-3.7,0.8-6.7,1.1-9.6c0.8-6.9,1.3-13.8,1.4-20.8v-3h1v3c-0.1,7-0.6,14-1.4,20.9
	c-0.3,2.9-0.7,5.9-1.1,9.7c-2.4,20.3-2.4,20.3-2.4,24.3c0,2,0.6,3.9,1.5,5.7c0.2,0.5,1.2,2.3,1.2,2.4c4.1,8.2,4.1,16.7-2.7,35.1
	c-10.8,29.8-21.6,39.3-39.5,39.3c-23,0-49.8,1.7-63.9,5c-3.9,0.9-20.7,5.2-19.4,4.9c-5,1.3-10,2.4-15,3.5c-11,2.4-20.1,3.6-27.7,3.6
	c-21.4,0-39.8,3.7-49.7,10.9c-3,2.2-5.6,5.7-9.1,11.7c-0.9,1.5-4.3,7.7-5.1,9.2c-6.5,11.3-12,17.7-19.9,21.2
	c-14.9,6.6-28.4,22-35.8,36.8c-0.7,1.5-1.3,3.1-1.7,4.7c-0.2,0.8-2.5,9.5-3.4,12.5c-1.5,5.3-3.6,10.4-6.2,15.3
	c-6.2,11.6-15.4,20.6-29,26.8c-16.1,7.4-23,6.5-21.6-1c1-5.3,6.4-13.8,13-21.7c1.8-2.2,3.4-4.5,4.8-7c4.4-7.9,5.1-13.8,5.1-32.7
	s-15.2-42.4-37.7-55.6c-15.6-9.1-31.6-7.4-49.4,1.2c-2.4,1.2-4.8,2.4-7.1,3.7l-1.9,1.1c-3.5,1.9-7.2,3.6-10.9,5.2
	c-1.6,0.7-12.2,5.4-15.7,6.9c-15.1,6.7-29.9,14-44.5,21.9c-15.9,8.7-22.4,7.2-20.5-2.3c1.2-6.2,5.8-15,11.8-24.4
	c2.8-4.5,7.7-9.8,14.8-16.3c2-1.9,4.1-3.8,6.6-5.9c1.5-1.3,13-11.3,15.8-13.8c2.9-2.7,5.6-5.6,8.1-8.7c2.8-2.8,5.8-3.5,16.2-3.5
	c7.5,0,12-2.4,14.8-7.4c2.2-4.1,3.1-8.8,4.2-19.6l0.3-2.7l0.3-2.8c0.6-5.4,4.5-8.5,11.2-9.6c5.4-0.9,12.5-0.5,21.9,0.9
	c2.7,0.4,5.5,0.9,9,1.5c15.3,2.7,16,2.8,19.4,2.8c5.7,0,12.9-1,37.3-5l2.3-0.4c20.1-3.3,30.5-4.6,37.4-4.6c10,0,23.5-3.2,35.8-9.1
	c15.6-7.5,28.1-18.7,35.8-33.7c4.9-9.5,7.1-20.1,6.5-30.7c-0.4-8.4-2-16.1-5.2-27.6L379.5,0.1z M393.1,0.1h1
	c0.8,3.9,1.9,8.7,3.5,14.9c3.6,14.1,3.1,27-0.8,38.8c-2.4,7.6-6.3,14.6-11.4,20.7c-5.8,6.9-12.3,13.2-19.3,18.8
	c-11.3,9-23.4,15.5-36,18.4c-7.5,1.7-15,3-22.6,4.1l-10.3,1.3l-9.4,1.1c-11.5,1.4-17.5,2.6-21.6,4.5c-9.3,4.2-28.4,6-49.2,6
	c-1.4,0-2.9-0.1-4.3-0.4c-3.1-0.5-6.1-1.3-9.1-2.3c-7.3-2.2-9.6-2.8-12.6-2.6c-3.9,0.2-6.6,2.3-8.5,6.9s-2.4,7.5-3.3,15
	c-1.1,9-2.9,12.1-10,14.3c-2.3,0.7-4.6,1.6-6.8,2.7c-0.6,0.3-1.2,0.6-1.8,1l-1.3,0.9c-1.9,1.1-3.9,1.5-9.2,1.5
	c-3.2,0-8.8-0.6-9.5-0.4c-1.2,0.3-0.8-0.1-7.1,6.2c-2,1.9-4.1,3.7-6.3,5.4c-1.5,1.2-7.2,5.4-7.9,6c-3.9,2.9-7.6,6-11.1,9.4
	c-4.9,5-6.8,9.1-5.6,12.7s4.1,4.4,8.9,2.8c2.7-1,5.3-2.1,7.8-3.5c1.5-0.8,7.8-4.1,9.4-5c4-2.1,8.1-4,12.3-5.7
	c3.7-1.5,7.4-3.1,11-4.8c2-1,10.7-5.2,13-6.2c4.4-2.1,8.1-3.8,11.6-5.3c17.1-7.3,29.3-9.9,37.7-6.6l5.4,2.1c2.3,0.9,4.2,1.6,6,2.4
	c4.4,1.8,8.8,3.8,13.1,6c18.3,9.6,30.4,22.1,34.8,39.9c7,27.9,3.6,45.5-8.1,62.4c-4,5.8-3.5,9.2,0.1,9c4.1-0.3,10.2-5,15.1-12.5
	c3.1-4.8,5.1-10.5,8-21.5l1.7-6.4c0.7-2.5,1.2-4.5,1.8-6.5c4.9-16.6,11-27.3,21.6-34.8c7.1-5.1,23.7-15.5,25.5-16.8
	c6.7-4.8,10.5-9.4,14.3-18c7.7-17.4,21.1-24.3,44.5-24.3c9.4,0,17.9-1.1,29.5-3.5c2.1-0.4,4.1-0.8,6.2-1.3c2.4-0.5,4.1-0.8,5.7-1.1
	c3.2-0.6,6.4-1,9.6-1.1c4.4,0,9.4-1,31.4-6l3-0.7c16.3-3.7,25.6-5.4,31.7-5.4c1.5,0,2.4,0,6.4,0.1c7.8,0.1,12.3,0.1,17.3-0.2
	c16.4-1.1,26.7-5.4,29.8-14.6c1-3,2.2-5.9,3.5-8.8c-0.2,0.3,2.3-5,2.9-6.4c5.4-12.3,5.6-21.9-1.4-39.4c-2.6-6.7-4.4-13.6-5.3-20.7
	c-1.6-12-1.4-23.1,0.1-40.3l0.2-2.1h1l-0.2,2.2c-1.5,17.1-1.7,28.2-0.1,40.1c0.9,7,2.6,13.9,5.2,20.5c7.1,17.8,6.9,27.7,1.4,40.2
	c-0.6,1.4-3.1,6.7-2.9,6.4c-1.3,2.8-2.5,5.7-3.5,8.7c-3.2,9.7-13.9,14.1-30.7,15.2c-5.1,0.3-9.6,0.4-17.4,0.2
	c-4-0.1-4.8-0.1-6.4-0.1c-5.9,0-15.2,1.7-31.4,5.3l-3,0.7c-22.2,5-27,6-31.6,6c-3.2,0.1-6.3,0.5-9.4,1.1c-1.6,0.3-3.2,0.6-5.6,1.1
	c-2.1,0.4-4.1,0.9-6.2,1.3c-11.7,2.4-20.3,3.5-29.7,3.5c-23,0-36,6.7-43.5,23.7c-3.9,8.8-7.8,13.6-14.7,18.5
	c-1.8,1.3-18.4,11.7-25.5,16.8c-10.3,7.3-16.3,17.9-21.2,34.2c-0.6,2-1.1,4-1.8,6.5l-1.7,6.4c-3,11.2-5,16.9-8.2,21.8
	c-5,7.8-11.4,12.7-15.9,13c-4.7,0.3-5.3-4.2-0.9-10.5c11.5-16.6,14.8-34,7.9-61.6c-4.4-17.4-16.2-29.7-34.3-39.2c-4-2.1-8.2-4-13-6
	c-1.8-0.8-3.7-1.5-6-2.4l-5.4-2.1c-8-3.1-20-0.6-36.9,6.6c-3.5,1.5-7.2,3.2-11.6,5.3l-13,6.2c-4.7,2.2-8.2,3.8-11.1,4.9
	c-4.2,1.6-8.3,3.5-12.2,5.6c-1.6,0.8-7.9,4.2-9.4,5c-2.5,1.4-5.2,2.6-7.9,3.5c-5.3,1.8-8.6,0.9-10.2-3.4c-1.5-4,0.7-8.5,5.8-13.7
	c3.5-3.4,7.3-6.6,11.2-9.5c0.8-0.6,6.4-4.9,7.9-6c2.2-1.6,4.3-3.4,6.2-5.3c6.7-6.7,6.1-6.2,7.6-6.5c0.9-0.2,6.7,0.4,9.7,0.4
	c5.2,0,7-0.3,8.7-1.4l1.3-0.8c0.6-0.4,1.2-0.7,1.8-1.1c2.2-1.1,4.6-2,7-2.7c6.6-2,8.2-4.8,9.3-13.5c0.9-7.5,1.5-10.5,3.4-15.2
	c2-4.9,5-7.3,9.3-7.5c3.2-0.2,5.5,0.3,13,2.6c2.9,1,6,1.7,9,2.3c1.4,0.2,2.7,0.3,4.1,0.3c20.7,0,39.7-1.8,48.8-6
	c4.3-2,10.3-3.1,21.9-4.5l9.4-1.1l10.3-1.3c7.6-1,15.1-2.3,22.5-4.1c12.4-2.9,24.3-9.3,35.5-18.2c7-5.6,13.4-11.8,19.2-18.6
	c5-6,8.8-12.9,11.1-20.3c3.8-11.6,4.3-24.4,0.8-38.2C395.4,10.2,394.2,5.2,393.1,0.1z M506.9,0.1h1.3c-0.4,0.5-0.8,1-1.2,1.5
	c-4,5-6.9,7.9-9.8,9.6c-1.5,0.9-3.2,1.4-5,1.4c-2.4,0-4.2,0.7-6.7,2.2l-2.6,1.7c-4,2.8-8.7,4.2-13.6,4.1c-5.6,0-10-1.3-16.1-4
	c-0.8-0.3-1.6-0.7-2.3-1.1l-2.2-1c-1.4-0.6-2.8-1.1-4.2-1.5c-1.1-0.3-2.2-0.4-3.3-0.4c-2.3,0-4.3-0.7-11-3.4l-1.6-0.6
	c-5-2-8.1-2.8-10.5-2.7c-2.9,0.2-4.4,2-4.4,6.1c0,20.8-5.2,50.4-12.1,57.3c-7.6,7.6-26.5,23.7-34.1,29.1
	c-13.2,9.4-31.2,20.2-44.1,25.1c-4.3,1.6-8.8,3-13.3,4c-3.3,0.8-6.6,1.4-11.2,2.2c-0.5,0.1-8.8,1.5-11.5,2c-4.9,0.9-9.3,1.7-14,2.8
	c-20.6,4.5-25.1,5-38.1,5c-2.5,0-2.9-0.1-14.1-2l-6.1-1c-8.1-1.2-13.8-1.4-17.6-0.2c-4.5,1.4-5.9,4.6-3.7,10.5
	c2,5.3,4.8,8.6,8.8,10.7c3.3,1.7,6.8,2.6,13.8,3.7c9.4,1.5,10.9,1.8,15.5,2.9c6.5,1.6,12.8,4.1,18.6,7.4c8.3,4.6,14.6,11.5,20,20.9
	c2.7,4.7,9.5,19.3,10.5,21.2c3.4,5.9,6.3,6.6,10.9,2c5-4.9,10.4-8.4,21.1-14.1c0.5-0.2,2.1-1.1,2.1-1.1c8-4.2,11.9-6.5,15.9-9.5
	c5.1-3.9,8.7-8.1,10.8-13.1c8.5-20.2,20.8-33.3,32.5-33.3h5.5c10.5,0.1,17.4,0,24.9-0.3c13.7-0.6,23.8-2.1,29.4-4.7
	c7.9-3.5,16-6.5,24.2-9c3.5-1.1,6.3-2.1,12.7-4.1c7.7-2.4,11.1-3.5,15.2-4.9c3.8-1.3,7.5-2.5,11.3-3.7s6-2,8-2.8
	c2.3-0.8,4.5-1.8,6.7-2.9c2-1.1,4-2.2,5.9-3.5c3.5-2.3,6.2-3.1,12-4.1l1.2-0.2c5.7-1,9-2.3,12.8-5.6c7.8-7,8.6-23.2,3.8-44.5
	c-1.7-7.7-2.1-19.3-1.6-35.5c0.2-6.2,0.5-12.4,0.8-18.6h1l-0.2,3.1c-0.3,6.4-0.5,11-0.7,15.6c-0.5,16.1-0.1,27.7,1.6,35.2
	c4.8,21.7,4,38.2-4.2,45.5c-3.9,3.5-7.4,4.8-13.2,5.9l-1.2,0.2c-5.8,1-8.3,1.8-11.7,4c-1.9,1.3-3.9,2.5-6,3.6
	c-2.2,1.1-4.5,2.1-6.8,3c-2.1,0.8-4.4,1.6-8.1,2.8s-7.5,2.5-11.3,3.7c-4.1,1.4-7.5,2.5-15.2,4.9c-6.4,2-9.2,3-12.7,4.1
	c-8.2,2.5-16.2,5.5-24.1,9c-5.8,2.7-16,4.1-29.8,4.8c-7.6,0.3-14.4,0.4-25,0.3H374c-11.2,0-23.2,12.8-31.5,32.7
	c-2.2,5.2-5.8,9.5-11.1,13.5c-4,3.1-8,5.4-16,9.6l-2.1,1.1c-10.7,5.6-16,9-20.9,13.9c-5.1,5.1-8.8,4.1-12.5-2.2
	c-1.1-1.9-7.9-16.5-10.5-21.2c-5.3-9.2-11.5-16-19.6-20.5c-5.8-3.2-12-5.7-18.4-7.3c-4.5-1.2-6-1.4-15.4-2.9
	c-7.2-1.1-10.7-2-14.1-3.8c-4.2-2.2-7.2-5.8-9.3-11.3c-2.4-6.4-0.8-10.3,4.3-11.8c4-1.2,9.8-1.1,18.1,0.2l6.2,1
	c11,1.9,11.5,2,13.9,2c13,0,17.4-0.5,37.9-5c4.7-1,9.2-1.9,14-2.8c2.7-0.5,11-1.9,11.5-2c4.6-0.8,8-1.5,11.2-2.2
	c4.5-1,8.9-2.4,13.2-4c12.8-4.8,30.8-15.6,43.9-24.9c7.5-5.3,26.4-21.4,33.9-28.9c6.6-6.7,11.8-36.2,11.8-56.6
	c0-4.6,1.9-6.9,5.4-7.2c2.6-0.2,5.8,0.7,11,2.7l1.6,0.6c6.5,2.6,8.5,3.3,10.6,3.3c1.2,0,2.4,0.2,3.5,0.5c1.5,0.4,2.9,0.9,4.3,1.5
	l3.3,1.5l1.1,0.5c6,2.7,10.2,3.9,15.7,3.9c4.7,0.1,9.3-1.2,13.1-3.9c0.2-0.1,2.1-1.4,2.7-1.7c2.6-1.6,4.6-2.4,7.2-2.4
	c1.6,0,3.1-0.5,4.5-1.3c2.8-1.6,5.7-4.4,9.5-9.3L506.9,0.1L506.9,0.1z M324.7,600.1h-2c0.5-3,0.9-6.2,1.3-9.7
	c0.4-4.1,0.8-8.2,1-12.2c0.1-2.4,0-4.9-0.4-7.3c-0.5-1.9-0.9-4.1-1.4-6.5c-2-11.3-2.7-22.9-1.1-33.8c0.8-6.2,2.5-12.3,5.2-18
	c3.2-6.7,7.5-12.8,12.6-18.2c3.7-3.9,7.6-7.5,11.8-10.8c4.5-3.8,6.4-5.6,7.5-7.5c0.6-0.9,0.9-2,1-3.1c0-1.8,0-1.7-0.8-9.2
	c-0.4-3.7-0.6-6.3-0.7-9c-0.5-12.1,1.6-19.6,8.1-21.8c15.9-5.3,25.9-12.1,33.5-25.5c9.5-16.9,25.7-31.5,35.9-31.5
	c12.4,0,20-2,29.4-8.8c6.8-4.9,9.5-6.6,12.5-7.5c2.2-0.6,3.8-0.7,9.1-0.7c1.9,0,3.5-0.8,5.6-2.6c1.1-1,5.1-5.1,5.6-5.6
	c6-5.9,12-8.8,20.8-8.8c2.5,0,4.5,0,7.3,0.1c7.5,0.2,8.9,0.2,11.3-0.7c3-1.1,5.5-3,14.8-11.2c8-7.1,10.7-8.9,22.9-16.5
	c1.4-0.9,2.6-1.6,3.7-2.4c3.4-2.2,6.6-4.7,9.5-7.5c4.1-3.9,8-7.9,11.6-11.9v3c-3.3,3.6-6.7,7-10.3,10.4c-3,2.8-6.2,5.4-9.7,7.7
	c-1.1,0.8-2.3,1.5-3.8,2.4c-12,7.5-14.7,9.3-22.6,16.3c-9.5,8.4-12,10.3-15.4,11.5c-2.7,1-4.2,1.1-12,0.8c-2.8-0.1-4.8-0.1-7.3-0.1
	c-8.3,0-13.8,2.7-19.4,8.2c-0.4,0.4-4.5,4.6-5.7,5.7c-2.4,2.1-4.5,3.1-6.9,3.1c-5.1,0-6.6,0.1-8.6,0.7c-2.7,0.8-5.3,2.4-11.9,7.1
	c-9.8,7.1-17.9,9.2-30.6,9.2c-9.2,0-25,14.2-34.1,30.5c-7.8,13.9-18.2,21-34.5,26.5c-5.3,1.8-7.2,8.5-6.8,19.8
	c0.1,2.6,0.3,5.2,0.7,8.8c0.8,7.6,0.8,7.6,0.8,9.4c0,1.4-0.4,2.9-1.2,4.1c-1.3,2.2-3.3,4.1-7.9,8c-6.2,5.2-8.4,7.1-11.7,10.6
	c-5,5.2-9.1,11.2-12.2,17.7c-2.6,5.5-4.2,11.4-5,17.4c-1.4,11.1-1,22.3,1.1,33.2c0.4,2.4,0.9,4.5,1.3,6.4c0.3,1.3,0.5,2.7,0.6,4.1
	c-0.2,5.4-0.6,10.8-1.2,16.1C325.6,594,325.2,597.2,324.7,600.1z M311.3,600.1h-1l0.1-0.3c3.1-7.2,4.3-11.8,4.3-18.7
	c0-3.6-0.1-4.9-0.8-15.7c-0.8-12-1-19.6-0.5-28.3c0.4-10.9,2.4-21.8,5.8-32.2c1.3-3.8,2.8-7.5,4.5-11.1c3.5-7.1,6.8-12.4,10.4-16.6
	c1.4-1.6,2.9-3.1,4.4-4.6c0.4-0.4,3-2.8,3.7-3.5c5.7-5.6,7.5-11.5,7.5-29.2c0-18.8,2.9-23.8,15.8-28.2c1.1-0.4,1.9-0.7,2.8-1
	c2.1-0.8,4.1-1.7,6.1-2.7c5.4-2.9,10.3-6.8,14.4-11.4c25.5-27.6,37.1-35.2,56.4-35.2c8.3,0,14.5-2,22-6.3c1.8-1,13.8-8.8,18.2-11.3
	c2.8-1.6,5.7-3,8.6-4.4c7.9-3.6,14-4.5,26.6-4.8c7.5-0.2,10.7-0.5,14.3-1.6c4.5-1.4,8.4-4.3,10.9-8.4c2.2-3.4,6.8-7.1,14.7-12.1
	c1.6-1,3.3-2,5.7-3.5c9.5-5.9,11.6-7.1,14.8-9.6c5.4-4.1,10-9.1,13.7-14.8c1.9-2.9,3.8-5.8,5.6-8.8v1.9c-2,3.2-3.4,5.4-4.8,7.4
	c-3.7,5.8-8.4,10.8-13.9,15c-3.3,2.5-5.3,3.8-14.9,9.6c-1.9,1.2-3.8,2.3-5.6,3.5c-7.7,4.9-12.3,8.5-14.4,11.8
	c-2.6,4.3-6.7,7.4-11.5,8.9c-3.7,1.1-6.9,1.4-14.5,1.6c-12.5,0.3-18.4,1.2-26.2,4.7c-2.9,1.3-5.8,2.8-8.6,4.4
	c-4.3,2.4-16.3,10.2-18.1,11.3c-7.6,4.4-14,6.4-22.5,6.4c-18.9,0-30.3,7.4-55.6,34.8c-4.2,4.7-9.2,8.6-14.7,11.6c-2,1-4,1.9-6.2,2.8
	c-0.9,0.3-1.7,0.6-5.4,1.9c-5.1,1.8-7.4,3.2-9.3,6.4c-2.2,3.8-3.3,9.9-3.3,20c0,17.9-1.9,24.1-7.8,29.9c-0.7,0.7-3.3,3.1-3.7,3.5
	c-1.5,1.4-2.9,2.9-4.3,4.5c-4.1,5-7.6,10.5-10.3,16.4c-1.7,3.6-3.2,7.3-4.5,11c-3.4,10.3-5.4,21-5.8,31.9
	c-0.4,9.4-0.2,18.8,0.5,28.2c0.7,10.8,0.8,12.1,0.8,15.7C315.7,587.4,314.7,592,311.3,600.1L311.3,600.1z M336.4,600.1h-1
	c0-4.7,0.1-9.4,0.3-15c0.3-6.4-0.4-11.8-2.5-24.4l-0.3-1.9c-2.1-12.5-2.8-19.3-2-26.5c0.8-8.9,5.1-17.1,12-22.7
	c22-18.2,29.8-30.2,29.8-44.6c0-2.8-0.4-5.5-1-8.2c-1-4.8-1.1-5.7-1-7.6c0.2-2.6,1.5-5.1,3.6-6.7c2.7-2.4,7-4.6,13.7-7
	c9.7-3.5,15.5-9.2,24.3-21.6l1.8-2.5c4.5-6.3,7.1-9.6,10.4-12.8c4-4,9-6.8,14.5-8.2c13.3-3.3,20.4-5.5,25.3-7.6
	c1.8-0.8,3.6-1.7,5.3-2.7c1.4-0.8,2.8-1.7,4.2-2.6c2.7-1.7,5.2-2.1,11.4-2.3c5.4-0.2,7.9-0.4,11-1.4c3.7-1.2,7-3.3,9.5-6.2
	c4.9-5.3,10-7.6,17.8-8.9c1.1-0.2,1.9-0.3,3.9-0.6c6.9-1,9.9-1.7,13.5-3.6c4.5-2.5,6.8-4.4,23.5-19.7l3.1-2.9
	c9.7-8.7,16.1-13.8,21.4-16.5c4.2-2.1,8-5,11.2-8.6v1.5c-3.1,3.3-6.7,6-10.8,8c-5.2,2.6-11.6,7.7-21.2,16.3l-3.1,2.9
	c-16.8,15.4-19,17.3-23.7,19.8c-3.7,2-6.8,2.8-13.8,3.7c-2,0.3-2.8,0.4-3.8,0.6c-7.6,1.3-12.5,3.5-17.2,8.6c-2.7,3-6.1,5.3-10,6.5
	c-3.2,1-5.7,1.3-11.2,1.5c-6,0.2-8.4,0.6-10.9,2.1c-1.4,0.9-2.8,1.8-4.2,2.6c-1.7,1-3.5,1.9-5.4,2.8c-5,2.2-12.1,4.4-25.5,7.7
	c-9.7,2.4-15.3,7.6-24.4,20.6l-1.8,2.5c-8.9,12.5-14.8,18.3-24.8,21.9c-6.6,2.4-10.9,4.6-13.4,6.8c-1.8,1.5-3,3.6-3.2,6
	c-0.1,1.8,0,2.6,1,7.3c0.6,2.8,1,5.6,1,8.4c0,14.8-7.9,27-30.2,45.4c-7,5.8-10.6,13-11.6,22c-0.8,7-0.1,13.7,2,26.2l0.3,1.8
	c2.1,12.7,2.8,18.1,2.5,24.6C336.5,590.7,336.4,595.3,336.4,600.1L336.4,600.1z M96.1,600.1h-2c0.8-5.3,1.3-10.6,1.6-16
	c0.2-3.1,0.3-4.1,0.4-5.6c1.3-17.5,4-27.1,11.5-33.2c4.7-3.8,7.2-8.9,8.7-16c0.5-2.5,0.7-3.9,1.3-9.2c0.7-5.5,1.2-8.1,2.2-10.4
	c1.2-3,4.2-4.9,7.4-4.7c14.3,0,38.5,9.1,53.6,20.2c9.8,7,20.5,12.7,31.7,17.1c13,4.7,21.9,4.4,24.8-1.7c1.7-3.6,1.9-4.1,2.6-5.8
	c2.9-6.7,4.7-12.2,5.2-17.5c0.2-2.1,0.2-4.1,0-6.2c-0.3-2.8-1.4-4.5-4.1-7.4l-1.3-1.4c-0.9-0.9-1.7-1.8-2.4-2.8
	c-0.9-1.3-1.8-2.7-2.5-4.1l-1.1-2.1c-1.6-3.1-2.7-4.6-4.1-5.6c-5.3-3.5-14.8-5.5-28.6-6.8c-3-0.3-6-0.5-9-0.7l-2.2-0.2
	c-9.6-0.7-15.1-1.6-19.1-3.2c-14-5.9-34.6-26.4-34.6-36.9c0-5.3,1.7-9.5,5.5-14.1c2-2.4,11.1-11.7,12.8-13.5
	c4.5-5,10.2-9.5,17.7-14.7c2.8-1.9,14.8-9.6,17.5-11.5c2.3-1.6,4.4-3.4,6.3-5.4c1.5-1.5,7-7.1,7.1-7.3c7.2-7.3,12.7-11.6,19.7-14.4
	c3.4-1.3,8.1-2.8,17.4-5.4l11.8-3.3c4.2-1.2,8.5-2.4,12.7-3.7c20.4-6.2,34-12.1,40.8-18.4c8.7-8.2,11.8-13.8,15.7-26
	c2-6.2,3.1-9,5.1-12.7c9.5-17.7,28.7-39.4,43.5-45.4c14.1-5.8,19.4-11.7,19.4-18.1c0-2.9,2.7-8.4,6.8-13.7
	c4.8-6.2,10.6-11.4,16.8-14.2c12.5-5.8,33.5-10.1,47.4-10.1c5.3,0,9.8-1.5,16.4-4.9c9.2-4.7,10.1-5.1,13.6-5.1
	c10.4,0,32.1-2.6,45.8-6l3.9-1l3.5-0.9c2.6-0.7,4.3-1.1,5.9-1.4c3.1-0.8,6.4-1.2,9.6-1.2c3,0.1,5.9,0.6,8.7,1.5
	c4.6,1.4,13.7-0.9,22.9-5.7c3.4-1.8,6.7-3.9,9.8-6.2v2.4c-11.1,8.1-25.8,13.7-33.3,11.4c-2.6-0.8-5.4-1.3-8.1-1.4
	c-3.1,0-6.1,0.4-9.1,1.1c-3.1,0.7-6.2,1.5-9.3,2.3l-3.9,1c-13.9,3.5-35.7,6-46.2,6c-3,0-3.9,0.4-12.7,4.9
	c-6.9,3.5-11.6,5.1-17.3,5.1c-13.6,0-34.4,4.3-46.6,9.9c-5.8,2.7-11.4,7.6-16,13.6c-3.9,5-6.4,10.2-6.4,12.5
	c0,7.3-5.8,13.8-20.6,19.9c-14.3,5.9-33.2,27.2-42.5,44.6c-1.9,3.5-3,6.3-4.9,12.4c-4,12.5-7.2,18.4-16.3,26.9
	c-7.1,6.6-20.9,12.6-41.6,18.9c-4.2,1.3-8.5,2.5-12.7,3.7l-11.8,3.3c-9.2,2.6-14,4-17.2,5.3c-6.7,2.7-12.1,6.8-19.1,13.9
	c-0.1,0.1-5.6,5.8-7.1,7.3c-2,2.1-4.2,4-6.6,5.6c-2.7,1.9-14.8,9.6-17.5,11.5c-7.4,5-12.9,9.5-17.3,14.4
	c-1.7,1.9-10.8,11.1-12.7,13.5c-3.5,4.3-5,8-5,12.9c0,9.5,20,29.5,33.4,35.1c3.7,1.5,9.1,2.3,18.4,3l4.3,0.3
	c3.2,0.2,5.1,0.4,6.9,0.5c14.1,1.4,23.8,3.4,29.4,7.2c1.8,1.2,3,2.9,4.8,6.3l1.1,2.1c0.7,1.3,1.5,2.6,2.3,3.8
	c0.7,0.9,1.5,1.8,2.3,2.6c0.2,0.2,1.1,1.2,1.3,1.4c2.9,3.1,4.2,5.2,4.6,8.5c0.2,2.2,0.2,4.4,0,6.6c-0.6,5.5-2.4,11.2-5.4,18.1
	c-0.7,1.7-1,2.2-2.7,5.8c-3.5,7.5-13.3,7.8-27.2,2.8c-11.4-4.4-22.3-10.2-32.2-17.4c-14.9-10.6-38.7-19.6-52.5-19.6
	c-5,0-6.4,3-7.6,13.3c-0.3,3.1-0.8,6.2-1.4,9.3c-1.5,7.5-4.3,13-9.4,17.2c-6.9,5.6-9.5,14.8-10.8,31.8c-0.1,1.5-0.2,2.5-0.4,5.6
	C97.4,589.6,96.9,594.9,96.1,600.1z M104.2,600.1h-1c0.3-1.4,0.6-2.9,0.9-4.6l1.1-5.6c2.5-13.3,4.2-19.9,6.7-24
	c2.5-3.8,5.2-7.5,8.1-11c8.2-10.4,10.9-14.5,10.9-18.7v-5.5c0.2-5,1.5-8.2,4.6-9.4c3.9-1.5,10.4,0.4,20.1,6.4s17.5,10.7,25.9,15.7
	c1.3,0.8,14.3,8.4,17.7,10.5c2.1,1.3,4.3,2.6,6.4,3.9c13.8,8.5,38.9,5,46.3-7.8c3.6-6.3,4.5-8.5,7.8-17.3c0.4-1,0.8-2.1,1.2-3.1
	c1.1-2.7,2.4-5.2,4.1-7.6c9.3-14,14.9-26.1,14.9-36.7c0-3.7,0.8-6.6,3.4-14.9c0.5-1.6,0.8-2.7,1.1-3.7c3.6-12.2,3-19.1-4.3-24
	c-3-2-6.4-3.3-10-3.8c-7.2-0.9-14.5,1.2-23.9,5.9c-1.6,0.8-6.6,3.4-7.6,3.9c-1.4,0.7-2.8,1.5-4.1,2.3l-4.4,2.7
	c-11.6,6.9-20.4,9.2-32.8,6.1c-3.3-0.8-6.2-1.4-13.1-2.6c-13.2-2.4-18.7-3.8-23.3-6.5c-6.2-3.7-7.5-9-2.9-16.6
	c4-6.7,8.9-12.8,14.4-18.3c2.7-2.7,5.5-5.2,8.3-7.7c-0.1,0,6.2-5.3,7.8-6.8c2.3-2,4.4-4.1,6.5-6.3c7.7-8.5,12.8-13.4,20.1-18.6
	c10.6-7.5,22.5-12.8,35.2-15.6c37-8.6,51-12.7,58.8-17.9c8.6-5.7,21.3-24.8,36.8-54.8c5.2-9.9,12.4-18.7,21.1-25.7
	c5.1-4.2,9.6-7.2,17.5-12.2c7.4-4.6,9.6-6.1,11.4-8.2c1.2-1.5,2.2-3.1,3-4.9c0.6-1.3,2.9-6.5,3-6.8c1.2-2.6,2.5-5.2,4-7.7
	c6.5-11,16-18,31.4-20.8c12.7-2.3,19.9-2.7,29.7-2.3c3.2,0.1,4.1,0.2,5.6,0.1c5.1-0.1,9.7-1,16.6-3.8c20.7-8.3,38.8-12,59.2-12
	c3,0,6,0.1,10.5,0.5l2.1,0.2c12.5,1,18.1,1,25.3-0.6c4.9-1.1,9.7-2.9,14.1-5.4v1.1c-4.4,2.4-9,4.2-13.9,5.3
	c-7.4,1.6-13.1,1.6-25.6,0.6l-2.1-0.2c-4.4-0.3-7.4-0.5-10.4-0.5c-20.3,0-38.2,3.7-58.8,12c-7,2.8-11.7,3.8-17,3.9
	c-1.5,0-2.4,0-5.7-0.1c-9.8-0.4-16.8,0-29.5,2.3c-15.1,2.7-24.3,9.6-30.7,20.3c-1.4,2.5-2.7,5-3.9,7.6c-0.1,0.3-2.4,5.5-3,6.8
	c-0.8,1.8-1.8,3.5-3.1,5.1c-1.9,2.1-4.1,3.7-11.6,8.4c-8,5-12.4,7.9-17.4,12.2c-8.7,6.9-15.8,15.6-20.9,25.4
	c-15.6,30.2-28.4,49.3-37.2,55.2c-8,5.3-22,9.4-59.2,18.1c-12.5,2.8-24.3,8-34.8,15.4c-7.2,5.2-12.3,10-19.9,18.4
	c-2.1,2.2-4.3,4.4-6.6,6.4c-1.7,1.5-7.9,6.8-7.8,6.8c-3.3,2.8-5.8,5.2-8.3,7.6c-5.5,5.4-10.3,11.5-14.3,18.1
	c-4.3,7.2-3.2,11.9,2.5,15.3c4.5,2.6,9.9,4,23.2,6.4c4.3,0.7,8.6,1.6,12.9,2.6c12.1,3,20.6,0.8,32.1-6l4.4-2.6c1.7-1,3-1.7,4.2-2.4
	c0.9-0.5,6-3.1,7.6-3.9c9.6-4.8,17-6.9,24.5-6c3.7,0.5,7.3,1.8,10.4,3.9c7.8,5.2,8.5,12.5,4.7,25.1c-0.3,1.3-0.7,2.5-1.2,3.7
	c-2.6,8.1-3.3,11-3.3,14.5c0,10.9-5.7,23.1-15.1,37.3c-1.6,2.3-2.9,4.9-4,7.5c-0.4,0.9-0.7,1.8-1.2,3c-3.2,8.8-4.2,11.1-7.8,17.5
	c-7.7,13.4-33.4,17-47.7,8.2c-2.1-1.3-4.3-2.6-6.4-3.9c-3.4-2-16.4-9.7-17.7-10.5c-8.4-5-16.4-9.8-25.9-15.7s-15.7-7.7-19.2-6.4
	c-2.7,1-3.8,3.8-4,8.5c0,1.2-0.1,2.5,0,3.7v1.7c0,4.5-2.7,8.7-11.5,19.9c-2.7,3.3-5.3,6.8-7.6,10.4c-2.4,4-4.1,10.6-6.6,23.7
	l-1.1,5.6L104.2,600.1z M114.7,600.1h-1v-1c0-12.4,8.5-33.6,19.2-43.4c1.4-1.3,2.6-2.7,3.7-4.2c1.1-1.6,2.1-3.2,2.9-4.9
	c0.4-0.7,1.8-3.7,2.1-4.4c3.2-6.3,6.8-6.5,17,0.4l6.4,4.4c2.6,1.8,4.7,3.2,6.7,4.6c5,3.4,9.4,6.2,13.5,8.7
	c14.3,8.7,25.5,13.3,34.1,13.3c16.9,0,32.7-6,39.6-14.8c1.6-2,3.2-5.2,5.1-9.6c0.8-1.9,1.6-4.1,2.7-6.8l2.7-7.3
	c4.7-12.4,7.8-19.1,11.6-23.3c7.9-8.8,14.9-36,14.9-52.7c0-1.9,0.2-3.1,1-8.3c0.3-1.7,0.6-3.4,0.7-5.1c0.6-5.5,0.2-9.5-1.7-12.4
	c-4.6-7.1-19.7-9.2-38.5-4.8c-6.5,1.5-12.8,3.6-18.9,6.3c-5.2,2.4-17.1,9.7-16.5,9.4c-6.7,3.6-13,4.1-24.8,1.3
	c-29.6-7.1-30.4-8.6-15.3-26.8c17.4-20.9,47.1-46.2,56.4-46.2c9.9,0,53.8-12,65.8-18c9.5-4.7,24.3-21.2,36.8-37.9
	c0.7-1,13.5-21.6,19.2-29.6c9.4-13.1,18.2-22.5,27-27.5c7.3-4.2,13.2-10.3,18.8-18.7c1.9-2.9,10.5-17.6,12.7-20.4
	c1.2-1.6,2.7-3,4.5-3.9c14.1-6.2,24.2-9,39.2-9h29c4,0,7.4-0.4,22.9-2.5l4.3-0.6c9.9-1.3,16.6-1.9,21.8-1.9h6
	c18.6,0.2,28.5-0.5,44.9-4c3.2-0.7,6.2-1.8,9.1-3.3v1.1c-2.8,1.4-5.8,2.5-8.9,3.2c-16.4,3.6-26.4,4.2-45.1,4.1h-6
	c-5.2,0-11.8,0.6-21.6,1.9l-4.5,0.6c-15.6,2.1-18.9,2.5-23.1,2.5h-29c-14.8,0-24.8,2.8-38.8,9c-1.6,0.9-3,2.1-4.1,3.6
	c-2.2,2.7-10.7,17.4-12.7,20.3c-5.7,8.6-11.7,14.8-19.1,19c-8.6,4.9-17.4,14.2-26.6,27.2c-5.7,8-18.5,28.6-19.2,29.6
	c-12.6,16.8-27.5,33.3-37.2,38.1c-12.1,6-56.1,18-66.2,18c-8.8,0-38.4,25.1-55.6,45.8c-14.6,17.5-14.2,18.2,14.7,25.2
	c11.6,2.8,17.6,2.3,24.1-1.2c-0.7,0.4,11.3-7,16.6-9.4c6.1-2.8,12.5-4.9,19.1-6.4c19.1-4.5,34.6-2.4,39.5,5.2c2,3.2,2.5,7.3,1.8,13
	c-0.2,1.7-0.5,3.4-0.8,5.1c-0.8,5.1-1,6.3-1,8.1c0,16.9-7,44.3-15.1,53.3c-3.7,4.1-6.8,10.7-11.4,23c-0.4,0.9-2.2,5.9-2.7,7.3
	c-1,2.8-1.9,4.9-2.7,6.8c-1.9,4.5-3.5,7.7-5.2,9.8c-7.1,9.1-23.2,15.2-40.4,15.2c-8.9,0-20.1-4.7-34.6-13.4
	c-4.1-2.5-8.5-5.3-13.6-8.7c-2.2-1.5-4.5-3-6.7-4.6l-6.4-4.4c-9.7-6.6-12.6-6.4-15.5-0.8c-0.4,0.7-1.7,3.6-2.1,4.3
	c-0.8,1.8-1.8,3.4-3,5c-1.1,1.6-2.4,3-3.8,4.3c-10.5,9.6-18.8,30.5-18.8,42.6L114.7,600.1L114.7,600.1z M85,600.1h-1.1
	c1.2-2.5,1.8-5.2,1.8-8c0-20,4.8-42,12.2-49.3c5.2-5.2,7.8-8.4,9.9-12.7c2.6-5.4,3.9-12,3.9-20.9c0-6.8,1.1-11.6,3.4-15.1
	c1.7-2.7,3.6-4.2,8.9-7.5c1.4-0.8,2.7-1.8,3.9-2.8c4.6-4,6.6-6.2,7.7-9.4c1.4-4,0.9-9-1.9-16c-1.2-2.8-2.5-5.5-4-8.1l-0.9-1.7
	c-0.9-1.6-1.8-3.3-2.6-5c-5.2-10.7-3.8-18.9,7.7-29.8c8.3-7.9,17.3-15.1,26.8-21.5c4-2.7,16.8-10.8,19.2-12.5c2-1.4,4.3-3.3,7.8-6.3
	c0,0,7.2-6.4,9.5-8.3c4.1-3.7,8.5-7,13.1-10.1c4.7-3.1,9-5.3,12.9-6.3c12.8-3.4,15.6-4.2,21.8-6c12.5-3.6,22-6.9,28.1-10
	c2.4-1.1,4.9-2.1,7.5-2.8c8.7-2.7,12-4.1,17-8.1c6.8-5.5,13.1-14.2,19.3-27.9c16-34.8,19.1-39.4,32.1-49.2c3.1-2.4,6.4-4.1,11.4-6.4
	l2.3-1c11.9-5.4,16.9-8.9,21.1-17.4c1.9-3.8,2.5-6.3,3.4-12.3c0.8-5.2,1.5-7.6,3.5-10.2c2.6-3.4,7-6.3,14.4-9
	c3.9-1.4,7.9-2.7,12-3.7c16.3-4.3,25.3-5.4,39.6-5.8c6.9-0.2,9.5-0.6,12.7-2c1.3-0.5,2.5-1.3,3.6-2.1c4-2.8,8.5-4.7,13.2-5.7
	c5.7-1.3,10.7-1.5,18.7-1.4h2.4c2.8,0,6.8-1,19.7-4.7c10.8-3.1,16-4.3,19.3-4.3c1.2,0,2.3,0.2,3.5,0.4l5,0.9
	c9.8,1.7,17.4,1.9,25.2-0.2c8.2-2.3,15.4-7.3,20.3-14.2v1.6c-5,6.6-12,11.4-20,13.6c-7.9,2.1-15.6,1.9-25.6,0.2l-5-0.9
	c-1.1-0.2-2.3-0.4-3.4-0.4c-3.2,0-8.3,1.2-19.7,4.5c-12.3,3.5-16.3,4.5-19.3,4.5h-2.4c-7.9-0.1-12.9,0.2-18.5,1.4
	c-4.6,0.9-9,2.8-12.9,5.5c-1.2,0.9-2.4,1.6-3.8,2.2c-3.3,1.5-6,1.9-13,2.1c-14.2,0.4-23.1,1.5-39.4,5.8c-4,1-8,2.3-12,3.7
	c-7.2,2.7-11.5,5.5-13.9,8.7c-1.9,2.5-2.6,4.8-3.3,9.8c-0.9,6.1-1.5,8.7-3.5,12.6c-2.2,4.6-5.5,8.5-9.7,11.4
	c-3.1,2.3-6,3.7-11.9,6.4l-2.3,1c-4,1.7-7.7,3.8-11.2,6.3c-12.9,9.7-15.9,14.2-31.9,48.8c-6.3,13.8-12.7,22.7-19.6,28.2
	c-5.1,4.1-8.5,5.6-17.3,8.3c-2.5,0.7-4.9,1.6-7.3,2.7c-6.2,3.1-15.7,6.4-28.3,10.1c-7.2,2.1-14.5,4.1-21.8,6
	c-3.8,1-7.9,3.1-12.6,6.2c-4.5,3.1-8.8,6.5-12.9,10.1c-2.2,1.9-9.5,8.3-9.5,8.3c-2.5,2.3-5.1,4.4-7.8,6.4
	c-2.5,1.7-15.3,9.8-19.3,12.5c-9.5,6.4-18.4,13.6-26.7,21.5c-11.1,10.6-12.4,18.3-7.5,28.6c0.8,1.7,1.7,3.3,2.6,5l0.9,1.7
	c1.5,2.6,2.9,5.4,4,8.2c2.9,7.2,3.4,12.5,1.9,16.7c-1.2,3.4-3.3,5.8-8,9.8c-1.7,1.4-3.4,2.6-5.3,3.7c-3.9,2.5-5.7,3.9-7.3,6.4
	c-2.1,3.3-3.2,7.9-3.2,14.5c0,9-1.3,15.8-4.1,21.3c-2.2,4.5-4.8,7.8-10.1,13c-7.1,7.1-11.8,28.9-11.8,48.7
	C86.6,595.1,86.1,597.7,85,600.1L85,600.1z M367.5,600.1h-1l-1.1-5.8c-3.1-16.3-4-26.2-2.7-37.3c0.7-5.1,0.8-10.2,0.5-15.3
	c-0.2-4.5-0.2-5.7,0.2-7.6c0.8-4.3,3.4-8.5,10.4-16.3c9.1-10.2,12.3-15.4,19.8-30.1c1.4-2.6,2.3-4.5,3.4-6.3
	c0.9-1.5,1.8-3.1,2.8-4.5c3.1-4.7,7-8.4,16.8-16.8c11.2-9.6,15.5-13.9,18.1-19.1c0.7-1.4,1.3-2.9,1.9-4.4c0.5-1.3,1-2.7,1.5-4
	c3.6-9.9,8-13.9,22.9-17.8c5-1.3,20.5-5.1,21.4-5.3c16.2-4.1,25.3-7.4,33.5-12.6c5.9-3.8,5.8-3.8,27.7-16.5l2.6-1.5
	c10.2-6,17.1-10.2,22.7-14c3-2,5.9-4.1,8.8-6.3c2.1-1.7,4.3-3.4,6.4-5.1c5-4,10.4-7.4,16.1-10.3v1.1c-5.5,2.7-10.7,6.1-15.5,9.9
	c0.2-0.1-4.8,3.8-6.4,5.1c-2.9,2.2-5.8,4.3-8.8,6.4c-5.7,3.8-12.5,8-22.8,14l-2.6,1.5c-21.8,12.8-21.8,12.7-27.6,16.5
	c-8.3,5.3-17.5,8.6-33.8,12.7c-0.8,0.2-16.4,4-21.4,5.3c-8,2.1-13.1,4.5-16.5,7.5c-2.7,2.4-4,4.9-5.8,9.7l-1.5,4.1
	c-0.6,1.5-1.3,3-2,4.5c-2.7,5.5-7,9.8-18.4,19.5c-9.7,8.3-13.6,12-16.6,16.6c-1,1.4-1.9,2.9-2.7,4.5c-1,1.8-2,3.6-3.4,6.2
	c-7.6,14.8-10.8,20.1-20,30.4c-6.8,7.7-9.4,11.8-10.1,15.9c-0.3,1.8-0.3,3-0.2,7.4c0.2,5.2,0.1,10.4-0.5,15.5
	c-1.3,10.9-0.3,20.8,2.7,37L367.5,600.1L367.5,600.1z M291,600.1h-2.1l1.4-4.3c1-3.3,1.9-6.8,2.7-10.4c2.6-12.7,3.3-23.6,3.3-41.3
	c0-5.7-1.9-9.8-4.1-9.8c-2.9,0-7,5.6-10.9,17.1c-9.8,28.3-22.6,41.7-42.9,41.7c-22.4,0-29.3-1.3-48.4-10.1c-3.2-1.5-6.4-3.2-9.4-5
	c-2.9-1.8-12.8-8.6-14.8-9.7c-4.2-2.4-7-2.7-9.7-1c-0.7,0.4-1.3,0.9-1.9,1.5c-1.4,1.4-2.8,2.6-4.3,3.9c-1,0.8-2,1.6-3.1,2.4l-1,0.8
	c-8.6,6.6-11.6,11.4-11.6,21.2c0,1,0,2-0.1,3h-2c0.1-1,0.1-2,0.1-3c0-10.5,3.3-15.8,12.1-22.8c0.7-0.5,1.3-1.1,2-1.6s1.4-1.1,2-1.6
	c1.5-1.2,2.8-2.4,4.2-3.7c0.7-0.7,1.4-1.3,2.2-1.8c3.5-2.2,7-1.8,11.8,0.9c2.1,1.2,12,8,14.9,9.8c3,1.8,6,3.5,9.2,4.9
	c18.9,8.6,25.4,9.9,47.6,9.9c19.2,0,31.5-12.7,41.1-40.3c4.2-12.2,8.7-18.4,12.8-18.4c3.8,0,6.1,5.1,6.1,11.8
	c0,17.8-0.6,28.8-3.3,41.7c-0.8,3.6-1.7,7.1-2.8,10.6C291.8,597.7,291.4,598.9,291,600.1L291,600.1z M141.7,600.1l0.5-0.9
	c2.4-4.3,4.6-8.7,6.5-13.3c2.7-6.3,5.8-9.6,9.2-10.5c3.7-1,7.1,0.7,12.6,5.1s6.1,4.9,7.7,5.1s4.3,1.1,8.9,3
	c1.3,0.5,10.8,4.3,13.9,5.5s5.9,2.2,8.5,3.2c3.1,1.1,6,2,8.6,2.8h-3.4c-1.8-0.6-3.6-1.2-5.5-1.9c-2.9-1-5.7-2.1-8.5-3.2
	c-3.1-1.2-12.6-5-13.9-5.5c-4.5-1.8-7.1-2.7-8.6-2.9c-1.9-0.3-2.5-0.7-8.2-5.3c-5.2-4.2-8.4-5.8-11.7-4.9c-3.1,0.8-5.9,3.9-8.6,10
	c-2.1,4.7-4.3,9.3-6.8,13.8L141.7,600.1L141.7,600.1z M254.6,600.1c4.2-1.3,8-3.4,11.3-6.3c2-1.9,3.7-4,5.3-6.3c1-1.5,2.1-3.1,3.4-5
	c0.8-1.3,1.7-2.6,2.5-3.9l0.5-0.8l0.9-1.5c1-1.7,2.1-3.3,3.2-4.9c0.6-1,1.4-1.8,2.4-2.5c1-0.4,1.5,0.5,1.5,2v2.1
	c0.1,5.4-0.1,10.9-0.7,16.3c-0.4,3.6-1.2,7.2-2.4,10.6h-1.1c1.2-3.5,2.1-7.1,2.5-10.7c0.6-5.4,0.9-10.8,0.7-16.2v-2.1
	c0-1-0.1-1.1-0.1-1.1c-0.4,0.1-1,0.8-2,2.1c-1.1,1.6-2.2,3.2-3.2,4.8l-0.9,1.5l-0.5,0.8c-0.8,1.3-1.7,2.6-2.5,3.9
	c-1.3,2-2.4,3.6-3.4,5.1c-1.6,2.3-3.5,4.5-5.5,6.5c-2.6,2.3-5.6,4.2-8.9,5.5L254.6,600.1L254.6,600.1z M70.9,600.1h-1.4
	c3.4-3.4,5.2-8.3,5.2-15c0-18.6,0-17.3,1-20.8c0.8-2.3,1.9-4.6,3.3-6.6c0.4-0.7,4.9-7.8,6.8-10.9c3-5,11-16.5,12.2-18.6
	c3.5-6.1,4.7-12.1,4.7-24.2c0-7.9,2.5-14.2,8.1-23.4l2.8-4.6c0.9-1.4,1.7-2.9,2.5-4.4c1.5-2.5,2.3-5.4,2.6-8.3
	c0.2-3.8-1.3-7.3-4.9-10.9c-5.1-5.1-8.6-5.4-11.2-1.9c-2.1,2.9-3.5,7.7-5.1,16.5c-0.2,1-0.8,4.6-0.8,4.6c-0.5,3.2-1.2,6.4-2.1,9.6
	c-1.3,4.4-3.7,7.6-8.4,12.3l-3.3,3.2c-6.4,6.4-9.7,11.5-11.4,19.5l-1.2,5.5c-0.9,4.1-1.6,7-2.3,9.9c-3.7,13.7-9.7,26-22.6,44.7
	c-7.7,11.1-11,18.9-10.9,23.7h-1c-0.1-5.2,3.3-13,11.1-24.3c13-18.6,19-30.7,22.6-44.3c0.8-2.9,1.4-5.8,2.3-9.9l1.2-5.5
	c1.7-8.2,5.1-13.5,11.6-20l3.2-3.2c4.6-4.5,6.8-7.6,8.1-11.8c0.9-3.1,1.6-6.3,2.1-9.5l0.8-4.6c1.6-8.9,3-13.8,5.2-16.9
	c3-4.1,7.2-3.8,12.7,1.7c3.8,3.8,5.4,7.6,5.2,11.7c-0.3,3-1.3,6-2.7,8.7c-0.8,1.5-1.6,3-2.5,4.5l-2.8,4.6c-5.5,9.1-8,15.3-8,22.9
	c0,12.3-1.3,18.4-4.8,24.7c-1.2,2.1-9.2,13.7-12.2,18.6c-1.9,3.1-6.4,10.2-6.8,10.9c-1.3,2-2.4,4.2-3.2,6.4c-1,3.3-1,2.1-1,20.5
	C75.7,591.6,74,596.5,70.9,600.1L70.9,600.1z M310.3,0.1h1.1c-0.4,0.9-0.8,1.8-1.2,2.8c-3.9,9.1-5.5,15.1-5.5,25.2
	c0,7.6-2.1,11.6-6.6,13c-3.5,1.1-5.7,1-17.6-0.4c-11.5-1.4-19.2-1.6-28.2-0.1c-6.2,2.5-25.9,7-32.1,7c-11.1,0-36.8-2.9-54.1-7
	c-5.7-1.5-11.8-0.6-16.9,2.5c-4.1,2.3-7.1,5-13.9,12c-6.3,6.4-9.5,9.2-13.8,11.5c-7.1,3.8-11.2,7.7-13.4,12.3
	c-1.8,3.8-2.3,7.8-2.3,15.3c0,4.4-2.7,6.7-9.4,9.7c0.1-0.1-3,1.3-3.8,1.7c-8.8,4.1-12.7,8.3-12.7,16.5c0,12.5-4.9,19.2-17.3,28
	l-4.6,3.1c-1.9,1.3-3.3,2.3-4.7,3.3c-0.9,0.7-1.8,1.3-2.6,2c-7.2,5.6-11,14.5-15.6,33.3c-0.6,2.6-3.3,14-4.1,17.1
	c-1.5,6.5-3.3,12.9-5.2,19.3c-1.4,4.5-4.5,15.1-5,16.5c-0.5,2.2-1.4,4.3-2.5,6.3c-0.8,1.4-6.9,9.1-12.6,18.3l-5.5,8.8v-1.9l4.6-7.4
	c4-6.2,8.2-12.3,12.6-18.2c0.9-2,1.7-4,2.4-6.1c0.5-1.4,3.6-12,5-16.5c1.8-6,3.4-12.1,5.2-19.3c0.8-3.1,3.4-14.6,4.1-17.1
	c4.6-18.9,8.5-28,15.9-33.8c0.9-0.7,1.8-1.4,2.7-2c1.4-1,2.8-2,4.7-3.3l4.5-3.1c12.2-8.6,16.9-15,16.9-27.1
	c0-8.7,4.2-13.3,13.3-17.4c0.9-0.4,4-1.8,3.8-1.7c6.5-2.9,8.9-5,8.9-8.8c0-7.6,0.5-11.7,2.4-15.7c2.3-4.8,6.6-8.8,13.8-12.7
	c4.2-2.2,7.4-5,14.1-11.9c6.3-6.4,9.4-9.1,13.5-11.5c5.3-3.2,11.7-4.1,17.7-2.6c17.3,4.1,42.8,7,53.9,7c6.1,0,25.7-4.5,31.9-7
	c9.1-1.5,16.8-1.2,28.5,0.1s13.9,1.5,17.1,0.5c4.1-1.3,5.9-4.8,5.9-12.1C303.7,18,305.3,11.8,310.3,0.1z M335.4,0.1h1
	c0,5.6,0.3,11.5,0.6,19.4c0.5,9.7,0.6,14.6,0.6,21.6c0,9.8-4.7,17.5-13.1,23.2c-6.5,4.4-14.9,7.5-24.3,9.3
	c-3.7,0.5-9.4,0.6-22.7,0.2c-6.7-0.2-9.4-0.2-12.4-0.2c-2.6,0-5.2,0.4-7.6,1.4c-0.9,0.3-4.6,1.7-5.6,2.1c-6.6,2.3-13.6,3.5-24.8,3.5
	c-8.1,0-13.6-1.4-22.5-4.9l-3.2-1.2c-12.6-4.9-21.3-5.2-37.2,1.1c-11.1,4.4-18.1,9.2-22.3,14.8c-3.1,4.3-4.3,7.8-5.9,15.8
	c-1.2,6.1-1.9,8.7-3.5,12.1c-1.4,3.2-3.9,5.8-7.1,7.2c-2.3,1.1-4.3,1.5-9.3,2.2c-9,1.3-12.8,3.1-15.6,9.6c-3.1,7.6-8,14.4-14.2,19.8
	c-2.4,2.2-13.1,11-15.9,13.4c-8.2,7.1-13.8,17.4-18.7,32c-1.2,3.5-2.3,7.1-3.3,10.7c0,0.1-2.3,8-2.9,10.1
	c-8.3,28.8-17.7,52.9-25.9,61.2c-2.8,2.8-5.1,5.6-10.4,13c-2.7,3.9-5.7,7.6-8.9,11.1v-1.5c2.7-3,5.7-6.8,9.5-12
	c4-5.5,6.3-8.4,9.2-11.2c8.1-8.1,17.4-32.1,25.9-60.8c0.6-2.1,2.9-10,2.9-10.1c1.2-4.2,2.2-7.5,3.3-10.7c4.9-14.8,10.6-25.2,19-32.4
	c2.8-2.4,13.5-11.2,15.9-13.4c6.1-5.3,10.9-11.9,14-19.4c1.4-3.4,3.9-6.2,7.2-7.9c2.4-1.2,4.6-1.7,9.5-2.4c4.5-0.6,6.5-1.1,8.7-2.1
	c3-1.3,5.3-3.7,6.6-6.7c1.5-3.3,2.2-5.9,3.4-11.9c1.6-8.1,2.9-11.8,6.1-16.2c4.3-5.8,11.4-10.7,22.7-15.2
	c16.1-6.4,25.1-6.1,37.9-1.1l3.2,1.3c8.8,3.5,14.1,4.8,22.1,4.8c11.1,0,18-1.2,24.5-3.5c1-0.4,4.7-1.8,5.6-2.1c2.6-1,5.3-1.4,8-1.4
	c3,0,5.7,0.1,14.1,0.3c11.5,0.3,17.2,0.3,20.8-0.2c9.2-1.8,17.5-4.8,23.9-9.2c8.2-5.5,12.7-12.9,12.7-22.3c0-7-0.2-11.9-0.7-22.7
	C335.6,11.1,335.4,5.6,335.4,0.1z M94.1,0.1h2c-0.5,3.3-1.5,6.5-3,9.5c-2.3,4.4-2.8,5.8-5.3,13c-0.5,1.7-1.2,3.4-1.9,5
	c-2.2,4.7-5.9,8.8-13.1,14.3c-8,6.1-14.3,16.5-20,31.5c-2.4,6.2-8.8,25.6-9.6,28c-2.7,7.2-6.6,12.7-15.6,23.7l-2.7,3.2
	c-6,7.3-9.4,12.1-11.7,17.1s-7.1,9.9-12.9,14.1v-2.4c5.1-3.9,9.1-8.3,11.1-12.6c2.5-5.3,5.9-10.1,12-17.6l2.7-3.3
	c8.9-10.8,12.7-16.2,15.3-23.1c0.9-2.3,7.2-21.7,9.6-28c5.9-15.3,12.3-26,20.7-32.4c6.9-5.3,10.4-9.2,12.5-13.5
	c0.8-1.5,1.4-3.1,1.8-4.8c2.4-7.4,3-8.8,5.4-13.3C92.7,5.9,93.6,3,94.1,0.1z M103.1,0.1h1c-1.7,8.3-2.9,12.7-4.5,15.3
	c-1.6,2.6-2.9,5.4-4.1,8.2c-1.3,3-2.4,6.2-3.5,9.4c-0.6,1.9-1.4,3.7-2.4,5.4c-4.4,4.2-8.7,8.7-12.8,13.3c-2.7,3-5.1,6.2-7.2,9.7
	c-0.9,1.9-2.1,6-3.6,13c-0.6,2.9-3.7,17.2-4.5,21.1c-3.6,16.5-6.6,26.7-9.9,32C43.9,140,41,143.2,14.5,168.6
	c-4.3,4.2-9.1,7.9-14.3,10.9v-1.1c4.9-2.9,9.5-6.4,13.6-10.4c26.4-25.6,29.4-28.8,37-41.2c3.2-5.2,6.2-15.4,9.8-31.7
	c0.9-3.9,3.9-18.2,4.5-21.1c1.6-7.1,2.7-11.2,3.7-13.2c1.2-2.5,3.8-5.9,7.3-9.9l2.9-3.2c2.4-2.6,5-5.2,7.5-7.8l3.4-3.4
	c1.3-4.6,2.9-9.1,4.8-13.5c1.2-2.9,2.6-5.7,4.2-8.4C100.3,12.4,101.5,8.1,103.1,0.1z M83.9,0.1H85C82.9,4.8,79,9,73.6,12.4
	c-7.4,4.5-15.8,7-24.4,7.2c-8.9,0-11.8,7-11.7,21.5c0,1.7,0,3.2,0.1,6c0.1,3.3,0.1,4.5,0.1,6c0,5.6-0.7,11.1-2,16.5
	c-0.6,2.4-1.3,4.7-2.2,7c-2.3,5.3-4.6,10.6-7,15.9c-6.6,14.7-13.2,29.3-19.9,43.9c-1.7,3.8-3.9,7.4-6.4,10.7v-1.6
	c2.2-3,4-6.2,5.6-9.6c8.5-18.5,16.9-37.1,25.2-55.8c0.5-1.2,1-2.2,2.4-5.9c2.2-6.8,3.3-13.9,3.4-21.1c0-1.5,0-2.7-0.1-6
	c-0.1-2.8-0.1-4.3-0.1-6c0-6.8,0.5-11.6,2.1-15.3c1.9-4.7,5.4-7.2,10.7-7.2c8.5-0.2,16.7-2.6,23.9-7.1C78.1,8.4,81.9,4.5,83.9,0.1z
	 M366.5,0.1h1c1.9,10,2.2,12.7,2.3,18.3c1.2,9.2,1.3,18.5,0.4,27.8c-1,8.8-3.1,16-6.6,21.2c-11.3,16.5-39.8,29.2-66.4,29.2
	c-5.1,0-10.5,0.3-16.3,0.8c-8.2,0.8-16.3,1.9-24.4,3.2c-21.6,3.3-27.7,4-36.3,4c-6.9,0-12.2-1.1-21.7-3.9l-2.8-0.8
	c-1.4-0.4-2.5-0.7-3.6-1c-8-2.1-14.2-2-21.7,0.7c-4,1.4-7.3,4.4-9.2,8.2c-1.6,3.1-2.5,6.1-4,12.8s-2.3,9.5-4,12.6
	c-2,4.1-5.6,7.1-9.9,8.4c-3.2,1-6.4,2.1-9.5,3.4c-6.6,2.8-10.1,5.6-13.8,10.5c-1.3,1.8-1,1.3-5.4,7.9c-2.4,3.4-5.3,6.5-8.5,9.1
	c-2,1.8-10.7,8.8-12.9,10.7c-7.4,6.4-12.6,12.1-16.6,19.1c-4.2,7.3-7.8,18.3-11.3,33.3c-0.9,3.7-1.7,7.6-2.6,12.1l-1.2,5.8l-1.1,5.4
	c-1.8,9-2.8,13.3-3.8,16.3c-6.8,20.4-17.3,42.2-27.1,51.2c-5.1,4.7-8.1,7.1-11.1,8.9l-2.9,1.6c-0.4,0.2-9.6,4.4-14.1,6.7l-1.2,0.6
	v-1.1l0.8-0.4c4.5-2.3,13.7-6.4,14.1-6.6c1-0.5,1.9-1,2.8-1.5c3.9-2.5,7.6-5.5,10.9-8.7c9.7-8.9,20.1-30.5,26.9-50.8
	c1-2.9,1.9-7.2,3.7-16.1l1.1-5.5c1.2-6,2.4-12,3.8-18c3.5-15.1,7.1-26.1,11.4-33.5c4.1-7.1,9.4-13,16.8-19.4
	c2.2-1.9,10.9-8.9,12.9-10.7c3.1-2.6,5.9-5.6,8.3-8.9c4.4-6.6,4.1-6.2,5.5-8c3.8-5,7.5-7.9,14.2-10.8c2.6-1.1,5.7-2.2,9.6-3.5
	c4.1-1.2,7.4-4.1,9.3-7.9c1.6-3,2.4-5.8,4-13c1.4-6.3,2.3-9.3,4-12.5c2-4,5.5-7.1,9.7-8.7c7.7-2.8,14.1-2.8,22.3-0.8
	c1.1,0.3,2.3,0.6,3.7,1l3.7,1.1c8.5,2.5,13.7,3.6,20.5,3.6c8.6,0,14.7-0.8,36.2-4c8.1-1.3,16.2-2.4,24.4-3.2
	c5.9-0.5,11.3-0.8,16.4-0.8c26.3,0,54.5-12.6,65.6-28.8c3.4-5,5.5-12.1,6.5-20.7c0.8-7.9,0.8-16,0-23.9c-0.2-1.7-0.3-3.4-0.6-5.1
	C368.7,12.6,368.4,10.2,366.5,0.1L366.5,0.1z M19.1,0.1h1c-1.2,5.6-3,11-5.4,16.2c-2,4.7-2.8,9.8-2.4,14.9c0.2,4.3,0.7,7.7,2.3,16.1
	c0.8,4,1.5,8.1,1.9,12.2c1,8.9,0.2,16.1-2.8,22.8C9.5,91.5,5,100.6,0.2,109.5v-2.1C4.6,99,8.8,90.5,12.7,81.9
	c3-6.5,3.7-13.5,2.7-22.3c-0.4-3.4-0.8-6.3-1.9-12.1c-1.6-8.5-2.1-11.9-2.3-16.3c-0.4-5.2,0.5-10.5,2.5-15.3
	C16.4,10,17.2,7.4,19.1,0.1z M299.6,0.1c-1.3,3.9-3,7.6-4.9,11.2c-2.2,3.8-3.8,7.8-4.9,12l-0.4,1.8l-0.3,1.5
	c-0.1,0.7-0.4,1.4-0.7,2.1c-0.7,1-1.9,1.3-5.1,1.2c0.9,0-9.9-0.3-15-0.3c-9.9,0-19.8,0.9-29.5,2.6c-16.9,2.7-17.7,2.8-23.7,2.5
	c-2.7-0.1-5.4-0.5-8-1.1c-17.7-4.2-46.2-5.9-54.7-3c-3.4,1.3-6.7,3.2-9.5,5.6c-2.2,1.7-4.4,3.6-6.5,5.5c-1.4,1.2-9.2,8.5-10.8,9.8
	c-1.4,1.2-8.2,7.4-8.8,8c-1.5,1.3-3,2.6-4.6,3.9c-5,4-8.9,6.2-11.9,6.2c-3.5,0.1-4.3,0-5.1-0.4c-1.1-0.6-1.5-1.7-1.1-3.6
	c0.7-3.6,4.5-10.8,12.8-24.8c5.1-8.2,9-17,11.8-26.2c1.4-4.8,2.4-9.6,3-14.5h1c-1.1,7.3-1.5,9.7-3,14.8c-2.8,9.3-6.8,18.2-11.9,26.4
	c-8.3,13.8-12,21-12.7,24.5c-0.3,1.4-0.1,2.1,0.6,2.5s1.3,0.3,3.5,0.3c3.9,0,7.7-2.1,12.5-6c1.4-1.1,2.9-2.4,4.5-3.9
	c0.7-0.6,7.4-6.8,8.9-8s9.3-8.5,10.8-9.8c2.4-2.2,4.6-4,6.6-5.5c3.7-2.8,7-4.8,9.8-5.7c8.8-2.9,37.4-1.2,55.3,3
	c2.6,0.6,5.2,1,7.8,1.1c5.8,0.2,6.7,0.1,23.5-2.5c9.8-1.7,19.7-2.6,29.6-2.6c5.2,0,16,0.3,15,0.3c2.9,0,3.8-0.2,4.3-0.8
	c0.3-0.5,0.5-1.1,0.6-1.7l0.3-1.4l0.4-1.9c1.1-4.3,2.8-8.4,5-12.2c1.9-3.5,3.5-7.1,4.7-10.8L299.6,0.1z M291,0.1
	c-5.9,17.9-9.5,22-19.8,22c-4.5,0-10.2,0.3-28.7,1.5l-1.5,0.1c-15.6,1-23.5,1.4-28.8,1.4s-13.2-1-28.9-3.3l-1.5-0.2
	c-18.4-2.7-24.1-3.5-28.6-3.5c-3.9-0.1-7.8,1.1-11,3.3c-0.1,0.1-1.8,1.2-2.3,1.5c-2,1.4-4.3,2.2-6.7,2.2c-2.8,0-4.1-1.5-4.1-4.2
	c0.1-1.4,0.2-2.7,0.5-4.1c0.2-0.8,0.9-4.4,1.1-5.3c0.8-3.8,1.3-7.6,1.5-11.4h2c-0.2,4-0.7,7.9-1.5,11.8c-0.2,0.9-0.9,4.5-1.1,5.3
	c-0.3,1.2-0.4,2.5-0.5,3.7c0,1.7,0.5,2.2,2.1,2.2c2,0,4-0.7,5.7-1.9c0.7-0.5,1.5-1,2.3-1.4c4-2.5,7.2-3.7,12-3.7
	c4.6,0,10.3,0.7,28.9,3.5l1.5,0.2c15.5,2.3,23.4,3.3,28.6,3.3s13.1-0.4,28.6-1.4l1.5-0.1c18.5-1.2,24.2-1.5,28.8-1.5
	c9,0,12.1-3.4,17.7-20H291z M141.7,0.1h1.1c-2.1,3.9-2.6,5.1-2.8,6.2s0.4,1.6,2.3,2c3.6,0.3,7.3,0.4,10.9,0.3
	c7.2,0.1,14.3,0.7,21.4,1.6c3.9,0.5,8,1.1,13.1,1.9c24,3.7,22.5,3.5,26.8,3.5c24,0,51.8-2.2,60.4-6.9c2.9-1.6,5-4.5,6.6-8.6h1.1
	c-1.6,4.5-4,7.7-7.2,9.4c-8.8,4.8-36.7,7.1-60.9,7.1c-4.4,0-2.8,0.2-27-3.5c-5.1-0.8-9.2-1.4-13.1-1.9c-7-1-14.1-1.5-21.2-1.6
	c-7,0-9.1-0.1-11-0.4c-2.4-0.4-3.4-1.3-3.1-3.1C139.2,4.9,139.8,3.7,141.7,0.1z M218.1,0.1c5.7,1.6,10.4,2.5,14.1,2.5
	c9.6,0,16.7-0.7,22.4-2.5h3c-6.3,2.5-14.2,3.5-25.4,3.5c-4.5,0-10.3-1.2-17.5-3.5H218.1z M70.9,0.1c-2.9,3.3-7,5.4-12,6.5
	c-4.2,0.9-8.6,1.2-12.9,1h-1.8c-5.4,0-8.9-1.2-10.1-5c-0.3-0.8-0.4-1.6-0.4-2.5h1c0,0.8,0.1,1.5,0.4,2.2c1,3.2,4.1,4.3,9.1,4.3H46
	c4.3,0.2,8.5-0.1,12.7-1c4.1-0.7,7.9-2.7,10.9-5.6h1.3L70.9,0.1z M0.2,208c7.3-0.2,11.5,3.3,11.5,11.1c0,11.4-5.1,28.4-11.5,41.5
	v-2.3c5.9-12.7,10.5-28.5,10.5-39.2c0-7.2-3.7-10.3-10.5-10.1V208L0.2,208z M0.2,215c1.1,0.1,2.1,0.5,2.9,1.3
	c1.4,1.5,1.6,3.7,1.2,7.6l-0.2,1.3c-0.2,1.3-0.3,2.6-0.4,3.9c0,3.2-1.5,9.5-3.5,15.9v-3.4c1.5-5.1,2.5-9.9,2.5-12.4
	c0-1.3,0.2-2.7,0.4-4l0.2-1.3c0.4-3.6,0.2-5.6-0.9-6.8c-0.6-0.6-1.4-0.9-2.2-1V215z M0.2,411v-1.5c1.2-1.4,2.2-3,3-4.7
	c1.8-3.9,3.3-7.8,4.6-11.9c7.8-23.5,7.8-26.6,0.2-30.4c-2.4-1.1-5.2-1.4-7.8-0.9v-1c2.8-0.6,5.7-0.2,8.2,1c8.2,4.1,8.3,7.6,0.2,31.6
	c-1.2,4.1-2.8,8.1-4.6,12C3.1,407.4,1.8,409.3,0.2,411z M33.8,452.1c1.7,0,3-0.2,8.3-1.3l2.4-0.5c8.3-1.6,12.7-1.3,14.5,2.3
	c1.4,2.8-0.5,5.9-4.8,9.7c-1.6,1.4-3.3,2.8-5.1,4.1c-0.9,0.7-4.9,3.6-5.8,4.3c-1.3,0.9-2.4,1.9-3.5,3c-1.3,1.7-2.2,3.5-2.9,5.5
	c0.1-0.2-4,13.6-7,22.2c-2.7,7.9-5.6,10.7-8.8,8.6c-2.1-1.4-3.7-4.2-6.6-11c-1-2.5-2.1-5-3.4-7.4c-4.6-8.2-3.9-23.9-0.1-32.9
	c1.2-3,3.8-5.3,7-6c2.6-0.7,4.9-0.8,11.8-0.7L33.8,452.1L33.8,452.1z M33.8,454.1H30c-12.1-0.1-14.8,0.6-16.9,5.4
	C9.5,468,8.8,483,13,490.6c1.3,2.5,2.5,5,3.5,7.6c2.7,6.3,4.2,9.1,5.9,10.1s3.5-0.8,5.8-7.5c2.4-7.4,4.8-14.8,7-22.2
	c0.7-2.2,1.8-4.2,3.2-6c1.1-1.3,2.4-2.5,3.9-3.4c0.9-0.7,4.9-3.6,5.8-4.3c2-1.5,3.6-2.8,5-4c3.6-3.2,5.1-5.7,4.3-7.3
	c-1.2-2.4-5.1-2.6-12.4-1.3l-2.3,0.5C37.1,453.9,35.7,454.1,33.8,454.1L33.8,454.1z M379.5,600.1c-3.5-12.3-3.8-14.1-3.8-19
	c0-3.3-0.1-6.3-0.4-11.3c-0.6-10.3-0.6-13.5,0.3-17.1c1.2-4.7,4.2-7.1,9.7-7.1h26c4.1,0,5.2,1.8,5.9,7.1c0,0.4,0.1,0.9,0.2,1.3
	c0.8,5.3,2.8,7.6,8.9,7.6c3.6,0,5.5,0.4,6.4,1.4c0.8,0.8,0.8,1.4,0.4,3.9c-0.9,5.3,0.5,8.8,7.5,13.8c6.3,4.5,11.6,5.4,16.5,3.4
	c3.8-1.5,6.7-4.2,11.9-10l1.1-1.2l1.1-1.2c0.9-1,1.8-1.9,2.7-2.9c2.8-2.8,6-5,9.6-6.7c1.8-1,3.8-1.8,5.7-2.6c6.1-2.7,9-4.5,11.7-7.6
	c1.9-2.3,4.2-4.4,6.7-6c3.2-1.8,5.5-2.1,13.7-2.1c6,0,10.6-4.3,18-15l2.8-4c1.1-1.5,1.9-2.7,2.8-3.8c7.9-10.1,19.4-10.4,30.7,1
	c5.5,5.5,10.2,19.4,13.6,38.5c2.4,13.2,3.9,26.4,4.5,39.8h-1c-0.6-13.3-2.1-26.6-4.5-39.7c-3.4-18.9-8-32.7-13.4-38
	c-11-11-21.8-10.7-29.3-1c-0.8,1.1-1.7,2.3-2.8,3.8l-2.8,4c-7.7,11-12.4,15.4-18.8,15.4c-8,0-10.2,0.3-13.2,2
	c-2.5,1.6-4.6,3.5-6.5,5.8c-2.9,3.3-5.9,5.1-12.1,7.9c-1.9,0.8-3.8,1.7-5.6,2.6c-3.4,1.7-6.5,3.9-9.3,6.5c-1.3,1.3-2.6,2.7-3.8,4
	l-1.1,1.2c-5.3,6-8.3,8.6-12.3,10.2c-5.3,2.1-10.9,1.2-17.5-3.5c-7.3-5.2-8.8-9.2-7.9-14.8c0.3-2.1,0.3-2.6-0.1-3.1
	c-0.6-0.7-2.3-1-5.7-1c-6.6,0-9-2.6-9.9-8.4l-0.2-1.3c-0.7-4.8-1.5-6.2-4.9-6.2h-26c-5,0-7.6,2-8.7,6.3c-0.9,3.4-0.9,6.6-0.2,16.8
	c0.3,3.8,0.4,7.6,0.4,11.4c0,4.8,0.3,6.6,3.8,19L379.5,600.1L379.5,600.1z M393.2,600.1c-1.1-4.9-1.6-9.8-1.4-14.8
	c0-0.7,0.1-1.4,0.2-2.4l0.2-2.6c0.3-3.8,0.5-7,0.5-11.2c0-4.9,1.5-7.8,4.2-8.4c2.4-0.6,5.6,0.5,9.2,3c6.6,4.5,14,13.1,16.5,19.2
	c4.8,11.4,14.1,15.7,33.5,15.7c8.6,0,14.3-2.3,20.7-7.9c1.5-1.3,15.1-15,21-20c7.2-6.1,11.8-7.6,20.6-8.3c5.5-0.5,8-0.9,11.4-2.4
	c4.6-2,9.4-5.5,14.9-11.3c7.4-7.8,13.2-8.9,17.5-4.3c3.3,3.6,5.5,10.6,6.8,20.2c0.7,5.2,0.9,7.7,1.6,17.4c0.2,3.8,0.2,5.3-0.9,18h-1
	c1.1-12.7,1.2-14.3,0.9-18c-0.6-9.6-0.8-12.2-1.6-17.3c-1.3-9.5-3.4-16.3-6.6-19.7c-3.8-4.1-8.9-3.1-16,4.3
	c-5.7,5.9-10.5,9.5-15.2,11.5c-3.6,1.5-6.1,2-11.6,2.4c-8.8,0.7-13.2,2.2-20.2,8.1c-5.9,5-19.5,18.7-21,20
	c-6.5,5.7-12.5,8.1-21.3,8.1c-19.8,0-29.5-4.4-34.5-16.3c-2.5-6-9.7-14.4-16.2-18.8c-3.4-2.3-6.4-3.3-8.4-2.9
	c-2.2,0.5-3.4,2.9-3.4,7.5c0,4.3-0.2,7.5-0.5,11.3l-0.2,2.6c-0.1,0.9-0.1,1.7-0.2,2.3c-0.2,5,0.3,9.9,1.4,14.8L393.2,600.1
	L393.2,600.1z M506.9,600.1c2.5-3.3,8.9-11.8,10.9-14.3c5.5-7,13-12.4,19.4-13.9c7-1.7,11.5,1.5,11.5,9.2c0,4,0,5.2-0.7,19h-1
	c0.7-13.8,0.7-15,0.7-19c0-7.1-3.9-9.8-10.3-8.3c-6.1,1.5-13.5,6.8-18.8,13.6c-1.9,2.4-7.6,10.1-10.4,13.7H506.9z M497,261.1
	c3.6,2.8,7.4,5.4,11.4,7.8c1.1,0.6,8.4,4.9,10.3,6.1c11.3,7,15,13.4,12.3,25.3c-1.5,6.5-4.5,11.1-9.4,14.4
	c-3.8,2.6-8.1,4.3-16.1,6.6c-12,3.5-13.7,4-18.8,6.3c-2.7,1.2-5.3,2.6-7.8,4.2c-11.1,7.1-19.1,7.7-28,3.3c-3.6-1.8-17.2-11-17.2-11
	c-1.7-1.1-3.4-2.1-5.2-3.1c-16-8.8-34.3-24.2-34.5-31.9c-0.1-3.5,2-6.6,6.3-10.3c1-0.9,2.2-1.8,3.7-3c0.7-0.5,3.4-2.6,3.9-3
	c4.5-3.4,7.2-5.8,9.3-8.5c11.1-13.8,26.5-28.7,34.4-32.3c12.1-5.5,19.8-5.8,27.4,0.1c3.2,2.5,5.6,6.5,8.6,13.4
	c0.3,0.6,2.3,5.4,2.9,6.7c1.6,3.6,2.9,5.8,4.2,6.9C495.6,259.9,496.3,260.5,497,261.1L497,261.1z M493.6,260.9
	c-1.6-1.4-3-3.7-4.8-7.6c-0.6-1.3-2.6-6.1-2.9-6.8c-2.8-6.5-5.1-10.3-8-12.6c-6.8-5.4-13.9-5.1-25.3,0.1
	c-7.5,3.4-22.7,18.1-33.6,31.7c-2.9,3.3-6.1,6.3-9.7,8.8l-3.9,3c-1.2,0.9-2.4,1.9-3.6,2.9c-3.9,3.3-5.7,6-5.6,8.7
	c0.2,6.6,18.1,21.7,33.5,30.1c1.8,1,3.5,2,5.3,3.1c0.1,0.1,13.6,9.2,17,10.9c8.2,4.1,15.5,3.5,26-3.2c2.6-1.6,5.3-3.1,8.1-4.3
	c5.2-2.4,7-2.9,19.1-6.4c7.8-2.2,11.9-3.8,15.5-6.3c4.4-3,7.2-7.2,8.6-13.2c2.4-11-0.8-16.6-11.5-23.2c-1.9-1.2-9.2-5.4-10.3-6.1
	c-4-2.4-7.9-5-11.6-7.9C495.1,262.1,494.3,261.5,493.6,260.9L493.6,260.9z M87.9,241.7c3.8-2.7,7.9-5,12.1-6.9
	c0.9-0.5,1.8-0.9,2.8-1.2l4.4-1.9c6.1-2.6,12-5.6,17.7-9c9-5.3,18.4-10.1,27.9-14.5c4.2-1.9,21.9-9.8,21.2-9.5
	c19.2-8.6,28.1-6.9,49.5,8.1c7.9,5.5,13.2,13.2,16.4,22.7c3,8.8,3.8,16.5,3.8,27.8c0,8.3-0.7,13-3.7,19
	c-4.2,8.4-12.3,16.1-25.6,23.5c-24.4,13.5-38.8,27.5-52.8,47.8c-8.8,12.8-47.8,44.2-65.2,54.1c-21.2,11.9-47.3,21.9-65.2,21.9
	c-10,0-14.7-4.8-14.8-13.4c-0.1-6.3,2.1-13.7,6.3-24.3c3-7.4,2-12.9-2.2-22.3c-3.2-7.2-3.9-9.1-3.9-12.5s1.9-6.9,5.5-11.1
	c2.6-3,3.5-3.8,11.9-11.5c3.8-3.3,7.4-6.9,10.7-10.8c9.5-11.4,12.6-19.5,17.9-44.8c3.1-15,6.6-20.3,15.1-25.2
	c0.8-0.5,3.9-2.2,4.7-2.7C84.3,244,86.2,242.9,87.9,241.7L87.9,241.7z M88.5,242.5c-1.8,1.2-3.6,2.4-5.4,3.4l-4.7,2.7
	c-8.2,4.8-11.6,9.8-14.7,24.6c-5.3,25.5-8.5,33.7-18.1,45.2c-3.3,3.8-7,7.5-10.8,10.8c-8.4,7.6-9.2,8.5-11.8,11.4
	c-3.5,4-5.3,7.4-5.3,10.4c0,3.2,0.7,5.1,3.8,12.1c4.3,9.6,5.2,15.4,2.2,23.1c-4.2,10.5-6.3,17.8-6.2,23.9
	c0.1,8.1,4.3,12.4,13.8,12.4c17.7,0,43.7-9.9,64.8-21.9c17.3-9.9,56.1-41.2,64.8-53.9c14.1-20.4,28.6-34.6,53.2-48.2
	c13.1-7.2,21.1-14.9,25.2-23c2.9-5.9,3.6-10.4,3.6-18.5c0-11.1-0.7-18.7-3.7-27.4c-3.1-9.2-8.4-16.8-16.1-22.2
	c-21.1-14.8-29.7-16.4-48.5-7.9c0.7-0.3-17,7.6-21.2,9.5c-1.7,0.8-3.3,1.6-4.9,2.3c-7.8,3.7-15.5,7.8-22.9,12.2
	c-5.7,3.4-11.7,6.4-17.8,9l-4.4,1.9c-1,0.4-1.9,0.8-2.8,1.2C96.4,237.6,92.3,239.9,88.5,242.5L88.5,242.5z M80.9,254.7
	c7.7-6.2,12.3-8.2,23.7-11.3c6.1-1.7,9.1-2.9,12.3-5.7c3.8-3.3,7.5-4.5,15.9-6.1c2.8-0.5,3.7-0.7,5.1-1c5.5-1.2,9.5-2.9,13.1-5.9
	c10.4-8.5,25.4-14.1,36.3-14.1c5.3,0,16.8,7.6,25.7,17.2c10.7,11.5,16,23.3,12.7,32.5s-11.4,18.6-23,27.9
	c-7.9,6.3-16.3,11.7-25.2,16.4c-3.7,1.9-6.6,4.9-9.8,10c-0.7,1.1-11.1,20.2-16,27.8c-5.6,8.6-15.4,17.4-30.2,28
	c-3,2.2-6.1,4.3-9.2,6.4c-0.1,0.1-6.8,4.6-8.6,5.9c-4.5,3-8.9,6.3-13.1,9.8c-11.6,10.7-37.1,15.5-43.7,9c-2-2-2.2-4.1-2-10.5
	c0.4-9.4-0.5-14.5-5-20.5c-2-2.6-4.4-4.9-7-6.9c-3.9-3-6.1-6.1-6.6-9.5c-1-6.6,3.9-13.1,14.2-21.7c1.6-1.3,6.7-5.4,7.1-5.8
	c1.8-1.5,3.6-3.1,5.2-4.8c4.1-4.6,5.8-9.5,7.8-20.1c0.3-1.5,0.5-2.9,0.8-4.4c0.3-1.9,0.6-3.3,0.9-4.7c0.7-3.8,1.5-7.2,2.4-10.6
	c1-3.8,1.4-5.5,2.4-10.4c0.6-3,0.9-4.2,1.6-5.5C69.9,263.7,69.9,263.6,80.9,254.7L80.9,254.7z M81.5,255.5
	c-10.8,8.7-10.9,8.8-12,11.1c-0.7,1.7-1.2,3.4-1.5,5.2c-1,4.9-1.4,6.6-2.4,10.4c-0.9,3.4-1.7,6.8-2.4,10.6c-0.5,2.3-0.9,4.6-1.3,7
	l-0.4,2.1c-2,10.7-3.8,15.7-8,20.5c-1.6,1.8-3.4,3.4-5.3,4.9c-0.4,0.3-5.5,4.5-7.1,5.8c-10,8.4-14.7,14.6-13.8,20.8
	c0.5,3.1,2.4,6,6.2,8.8c2.8,2,5.2,4.4,7.2,7.1c4.6,6.2,5.5,11.5,5.2,21.1c-0.2,6.1,0,8.1,1.7,9.8c6.1,6.1,31,1.3,42.3-9
	c4.2-3.6,8.6-6.9,13.2-9.9l8.6-5.9c3.6-2.5,6.4-4.4,9.2-6.4c14.7-10.5,24.4-19.2,30-27.7c4.9-7.5,15.3-26.7,16-27.8
	c3.3-5.3,6.3-8.4,10.2-10.4c8.8-4.6,17.2-10.1,25-16.3c11.5-9.2,19.6-18.5,22.7-27.4s-2-20.3-12.5-31.5c-8.8-9.4-20-16.8-25-16.8
	c-10.7,0-25.4,5.5-35.7,13.9c-3.8,3.1-7.9,4.8-13.5,6.1c-1.4,0.3-2.4,0.5-5.1,1c-8.2,1.6-11.8,2.7-15.4,5.9
	c-3.3,2.9-6.4,4.2-12.7,5.9C93.6,247.5,89.1,249.3,81.5,255.5L81.5,255.5z M212.2,252c0,7.6-0.6,10.9-2.6,14.3
	c-1.1,1.8-7.7,10-8.6,11.3c-6,7.9-9.3,10.3-17.3,13.8c-1,0.4-2,0.9-3,1.5c-0.6,0.4-1.3,0.7-2,1c-0.7,0.3-4.5,1.9-5.5,2.4
	c-6.1,2.8-9,5.8-9,10.7c0,11-18.9,36.1-34.5,44.9c-8.2,4.6-21.3,9.4-32.8,11.9c-13.3,2.9-22.5,2.5-24.6-2.3c-1.3-3-4.4-4.3-12-5.8
	l-0.6-0.1c-4.8-1-6.9-1.5-9-2.6c-2.9-1.5-4.5-3.7-4.5-6.8c0-2.7,1.1-5.8,3.2-9.7c0.8-1.5,1.8-3.1,3.2-5.4c-0.2,0.2,2.8-4.4,3.7-5.8
	c6.7-10.7,9.8-18.5,9.8-27.2c0-18.4,11.2-33.4,27.5-42.9c5.2-3.1,9.2-3.3,15.2-2.1c5,1,6.1,0.9,7.4-1.5c4.5-7.9,7-9.5,15.9-9.5
	c3.7,0,7.4-1.1,10.5-3.2c1.6-1,8.7-6.2,11-7.7c9.2-6,11.3-7,25.2-11.9c6.9-2.5,15.2,1.3,22.3,9.1C207.7,235.5,212.2,244.9,212.2,252
	L212.2,252z M210.2,252c0-6.5-4.2-15.5-10.5-22.3c-6.7-7.3-14.2-10.7-20.2-8.6c-13.7,4.9-15.7,5.9-24.8,11.8
	c-2.2,1.5-9.4,6.7-11,7.7c-3.4,2.3-7.4,3.5-11.5,3.5c-8.1,0-10,1.2-14.1,8.5c-0.8,1.7-2.4,2.9-4.3,3.1c-1.3,0.1-1.9,0.1-5.2-0.6
	c-5.5-1.1-9.1-0.9-13.8,1.9c-15.8,9-26.6,23.4-26.6,40.9c0,9.2-3.3,17.3-10.2,28.3l-3.7,5.8c-1.4,2.2-2.3,3.8-3.2,5.2
	c-2,3.6-3,6.4-3,8.7c0,4.2,2.9,5.7,11.9,7.5l0.6,0.1c8.3,1.7,11.7,3.1,13.4,7c3.2,7.1,36,0,54.6-10.5c15-8.4,33.5-33,33.5-43.1
	c0-5.9,3.5-9.5,10.2-12.5c1.1-0.5,4.9-2.1,5.5-2.4c0.6-0.3,1.2-0.6,1.8-0.9c0.9-0.5,1.9-1,3.2-1.6c7.6-3.4,10.8-5.5,16.5-13.1
	c1-1.4,7.5-9.4,8.5-11.1C209.7,262.2,210.2,259.2,210.2,252L210.2,252z M173,229.6c0.1-0.1,2.4-1.5,2.9-1.8c0.8-0.5,1.6-0.9,2.4-1.2
	c2.6-0.8,5.1-0.1,11,3.1c14.9,8,19.4,22.9,9.2,38.7c-4,6.2-9.4,9-18.7,11.1c-0.9,0.2-1.2,0.3-3.1,0.7c-6,1.3-8.8,2.1-11.6,3.6
	c-3.7,2-6.4,5.4-7.5,9.4c-7.9,24.9-19.7,43.3-36.3,50.3c-16.4,6.9-21.1,8.5-28,8.9c-5.3,0.2-10.5-0.8-15.4-2.9
	c-1.9-0.7-3.8-1.6-5.6-2.6c-4-2.3-5.1-4.7-4.5-9.3c0.3-2.1,3.8-15.5,4.8-20.6c0.6-3,1.2-6.1,1.8-9.7c0.5-3,0.9-5.9,1.3-8.9
	c1.4-9.4,2.5-14.3,4.5-18.6c2.2-5.2,6.4-9.2,11.7-11.1c6.6-2.5,10.5-3.1,18-3.5c4.8-0.3,6.7-0.6,9-2c0.6-0.4,1.2-0.8,1.8-1.3
	c1.2-1.1,2.3-2.2,3.4-3.4c0.6-0.7,2.4-2.9,2.6-3.2c3.4-4,6.3-5.5,12.3-5.5c3.9,0,5.9-0.9,8.2-3.4c-0.2,0.2,2.8-3.1,3.9-4.2
	c2-2,4.3-3.7,6.8-5c1.5-0.8,3.1-1.6,5-2.4C166.4,233.3,169.7,231.5,173,229.6L173,229.6z M158.5,237.9c-2.4,1.3-4.6,2.9-6.6,4.8
	c-1.3,1.4-2.6,2.8-3.8,4.2c-2.5,2.6-4.7,3.7-8.9,3.7c-5.7,0-8.4,1.4-11.6,5.2c-0.2,0.3-2,2.5-2.6,3.2c-1.1,1.3-2.2,2.4-3.5,3.5
	c-0.6,0.5-1.3,1-2,1.4c-2.5,1.5-4.6,1.9-9.5,2.2c-7.4,0.4-11.2,1-17.7,3.5c-5.1,1.8-9.1,5.7-11.2,10.6c-1.9,4.3-3,9.1-4.4,18.4
	l-0.7,4.3l-0.7,4.6c-0.6,3.6-1.1,6.7-1.8,9.7c-1.1,5.2-4.5,18.5-4.8,20.6c-0.6,4.2,0.3,6.2,4,8.3c1.8,1,3.6,1.8,5.5,2.5
	c4.7,2,9.9,3,15,2.8c6.7-0.3,11.3-1.9,27.7-8.8c16.2-6.8,27.9-25,35.7-49.7c1.2-4.3,4.1-7.9,8-10c2.9-1.6,5.7-2.5,11.9-3.8
	c1.9-0.4,2.3-0.5,3.1-0.7c9.1-2.1,14.2-4.7,18.1-10.7c9.9-15.3,5.6-29.6-8.8-37.3c-5.8-3.1-8-3.8-10.2-3.1c-0.8,0.3-1.5,0.6-2.2,1.1
	c-0.6,0.3-2.8,1.7-2.9,1.8c-3.3,2-6.7,3.7-10.2,5.2C161.6,236.3,160,237.1,158.5,237.9L158.5,237.9z M116.1,270.6
	c16.1-2.9,26.4-1,32.5,6.2c5.1,5.9,1.1,21.4-5.9,35.5c-4.8,9.6-10.6,16.2-23.2,25.2c-14.2,10.1-35.5,12.2-40.7,3.9
	c-1.9-3-2.1-8.1-1.1-15.7c0.8-5.7,1.9-10.7,4.7-23l0.1-0.5c1.6-6.8,2.4-10.3,3.1-14.1c1.4-7.2,3.7-11.5,7.3-13.7
	c2.8-1.8,5.5-2.3,12.3-2.6C108.9,271.6,112.5,271.2,116.1,270.6L116.1,270.6z M116.3,271.6c-3.6,0.6-7.2,1-10.9,1
	c-6.6,0.3-9.2,0.8-11.8,2.5c-3.2,2.1-5.4,6.1-6.8,13.1c-0.8,3.8-1.6,7.4-3.2,14.2l-0.1,0.5c-2.9,12.2-3.9,17.3-4.7,22.9
	c-1,7.4-0.8,12.4,0.9,15.1c4.8,7.7,25.5,5.7,39.3-4.1c12.4-8.9,18.1-15.4,22.8-24.8c6.9-13.7,10.8-29,6.1-34.5
	C142,270.6,132.1,268.8,116.3,271.6z M132.2,276.6c7.1,0,10.7,3.1,11.2,8.7c0.4,4-0.4,8.1-2.8,15.9c-2.6,8.5-18.4,25.4-27.2,31.3
	c-7,4.7-20,5.7-26.6,1c-4-2.9-3.5-12.1,0-26.5c0.7-2.8,1.5-5.6,2.4-8.8c1-3.4,2-6.8,3.1-10.1l0.4-1.2c1.5-4.8,5.1-7.8,10.7-9.3
	c4.4-1.2,9.5-1.5,17.5-1.3l3.9,0.1C128.7,276.6,130.2,276.6,132.2,276.6z M132.2,277.6c-2,0-3.5,0-7.4-0.1l-3.9-0.1
	c-7.8-0.2-12.9,0.1-17.2,1.3c-5.3,1.4-8.7,4.2-10,8.6c-0.5,1.7-1.1,3.5-1.6,5.2c-0.7,2.2-1.3,4.2-1.8,6.1c-0.9,3.1-1.7,6-2.4,8.7
	c-3.4,13.9-3.9,22.9-0.4,25.4c6.2,4.4,18.7,3.5,25.4-1c8.7-5.8,24.3-22.5,26.8-30.7c2.3-7.7,3.1-11.7,2.7-15.6
	C141.9,280.3,138.8,277.6,132.2,277.6z M114.4,284.6c2.9,0.1,5.8,0.5,8.6,1.4c5.4,1.8,8.7,5,8.7,10.1c0,9.6-9.5,17.2-22.3,21.5
	c-9.8,3.3-13.6-1.8-11.7-16.5c0.8-6.3,3.8-10.7,8.2-13.5C108.5,286,111.4,284.9,114.4,284.6z M113.8,285.7c-2.6,0.4-5.1,1.3-7.3,2.7
	c-4.2,2.6-7,6.8-7.8,12.8c-1.9,14.1,1.4,18.5,10.3,15.5c12.5-4.2,21.7-11.5,21.7-20.5c0-4.6-3-7.5-8-9.1c-2.7-0.9-5.4-1.3-8.2-1.4
	C114.3,285.6,114,285.6,113.8,285.7z M194.7,262.2c-2.7,9.8-14.9,9.9-26.7,3.3c-10.2-5.6-13.8-18-5-22.9c1.5-0.8,3-1.7,4.5-2.7
	l2-1.3c1.3-0.8,2.6-1.6,3.9-2.3c4.7-2.4,8.8-2.8,14-0.7C196.6,239.3,198.4,249,194.7,262.2z M173.9,237.2c-1.3,0.7-2.6,1.4-3.8,2.2
	l-2,1.3c-0.8,0.5-1.5,0.9-2.2,1.4s-1.6,1-2.4,1.4c-7.9,4.4-4.6,15.8,5,21.1c11.3,6.3,22.8,6.2,25.3-2.7c3.6-12.8,1.9-22-6.7-25.4
	C182.1,234.6,178.3,234.9,173.9,237.2L173.9,237.2z M191.7,249.4c0,5.7-2.4,9-6.6,10c-3.3,0.8-7.6,0-11.1-1.8l-1.9-0.9
	c-0.6-0.2-1.1-0.5-1.6-0.9c-4.1-2.4-4.1-5,0.3-10.9C177.6,235.7,191.7,237.6,191.7,249.4L191.7,249.4z M190.7,249.4
	c0-5.3-2.9-8.6-7.3-9.2c-4.6-0.5-9.1,1.5-11.8,5.2c-4.1,5.5-4.1,7.4-0.6,9.5c0.4,0.2,0.9,0.5,1.6,0.9l1.9,0.9
	c3.2,1.7,6.8,2.3,10.4,1.7C188.6,257.5,190.7,254.6,190.7,249.4L190.7,249.4z M387.2,530.4c0-12.8,2.4-16.7,18.5-29.8
	c2.4-1.9,4.9-3.7,7.6-5.2c2.8-1.6,5.6-3,8.5-4.2c1.2-0.5,2.5-1,4.1-1.7l3.9-1.6c9.4-3.8,13.7-6.7,16.6-12c1.2-2.2,2.3-4.5,3.2-6.8
	c0.5-1.3,1-2.6,1.5-3.8l0.3-0.7l0.6-1.4c3.2-8,6-12.1,12.7-16.5c1.8-1.2,3.4-2.5,5-4c1.4-1.3,2.7-2.8,3.9-4.3c0.3-0.3,2.5-3.2,3.2-4
	c3.5-4.1,6.5-5.9,11.5-5.9c3.1,0,5.6-0.6,9.6-2.1c5.4-2,6.5-2.3,9-2.2s4.9,1.3,7.2,3.6c1.3,1.3,5.5,5.8,6.5,6.8
	c5.1,5,9.4,6.9,17.8,6.9c4,0,8.1,0.2,12.1,0.5c15.9,0.9,21.9,0.6,25.3-2.2c6.9-5.8,11.6-2.7,11.6,7.8c0,10.7-8.6,20-19,20
	c-4.8,0-8.3,1.4-9.3,3.7c-1.1,2.5,0.7,6.1,6,10.6c13.6,11.3,11.2,20.8-7.6,20.8c-5.3-0.1-10.5,1.8-14.6,5.2
	c-3.3,2.7-5.8,5.9-9.8,11.8l-1.5,2.2c-2.1,3.4-4.6,6.5-7.3,9.4c-6.2,6.2-9.3,7.6-13,6.9l-1-0.2c-0.9-0.2-1.8-0.4-2.7-0.4
	c-1.6,0-2.4,0.7-8.2,6.2c-4.9,4.7-8.1,6.8-11.8,6.8c-1.3,0-3.5,1.2-6.5,3.5c-1.3,1-2.7,2.1-4.5,3.7l-4.9,4.3c-1.5,1.3-3,2.6-4.5,3.8
	c-9.3,7.6-15.6,10.2-20.2,6.5c-2.4-1.8-4-4.4-4.6-7.3c-0.4-2-0.3-3.6,0.3-7.3c0.9-5.8,0.6-8.4-1.8-11.6c-2.3-3-3-3.2-3.8-2.4
	c-0.2,0.3-1.4,1.6-1.6,1.9c-2.2,2.5-4.9,3.6-9,2.8c-4.6-0.8-5.6-4.1-4.7-10.1l0.2-1.6c0.6-3.7,0.7-4.9,0.2-5.8s-1.9-0.9-5.2,0.4
	l-0.7,0.3c-13.8,5.5-15.3,6.1-19.4,6.7C390.5,539.1,387.2,536.7,387.2,530.4L387.2,530.4z M389.2,530.4c0,5,2.1,6.6,7,5.9
	c3.9-0.5,5.4-1.1,19-6.5l0.8-0.3c4.2-1.7,6.7-1.5,7.8,0.6c0.7,1.4,0.6,2.8-0.1,7l-0.2,1.5c-0.7,5-0.1,7.3,3.1,7.8
	c3.4,0.6,5.4-0.2,7.1-2.2c0.5-0.7,1.1-1.4,1.7-2c1.9-2,3.8-1.2,6.8,2.5s3.2,6.8,2.2,13.1c-1,6.8-0.5,9.4,3.6,12.7
	c3.5,2.8,9.1,0.5,17.7-6.5c1.4-1.1,2.8-2.3,4.5-3.8l4.9-4.3c1.8-1.6,3.3-2.8,4.6-3.8c3.3-2.6,5.7-3.9,7.7-3.9c3,0,6-1.9,10.4-6.2
	l2.5-2.4c0.7-0.8,1.5-1.5,2.4-2.1c1.8-1.5,3.3-2.3,4.7-2.3c1,0,2.1,0.1,3.1,0.4c0.3,0.1,0.7,0.2,1,0.2c3,0.6,5.5-0.5,11.2-6.3
	c2.7-2.8,5-5.8,7.1-9.1l1.5-2.2c4.2-6.1,6.8-9.4,10.2-12.2c4.4-3.8,10.1-5.8,15.9-5.7c16.9,0,18.6-7,6.4-17.2
	c-5.9-4.9-8.1-9.4-6.5-12.9c1.4-3.1,5.7-4.8,11.2-4.8c9.2,0,17-8.3,17-18c0-8.9-2.9-10.8-8.4-6.2c-3.9,3.3-10,3.6-26.7,2.7l-1-0.1
	c-5.1-0.3-8-0.4-11-0.4c-8.9,0-13.8-2.1-19.2-7.5c-1-1-5.3-5.5-6.5-6.8c-1.5-1.7-3.6-2.8-5.9-3c-2-0.1-3.1,0.2-8.1,2.1
	c-4.1,1.5-6.9,2.2-10.3,2.2c-4.3,0-6.8,1.5-10,5.2c-0.6,0.7-2.9,3.6-3.2,4c-1.3,1.6-2.6,3.1-4,4.5c-1.6,1.6-3.3,3-5.2,4.2
	c-6.3,4.2-8.9,7.9-12,15.6l-0.6,1.4l-0.3,0.7c-0.5,1.3-1,2.6-1.6,3.9c-1,2.4-2.1,4.7-3.3,7c-3.2,5.9-7.8,9-17.6,13l-3.9,1.6
	c-1.4,0.5-2.7,1.1-4,1.7c-2.8,1.2-5.6,2.6-8.3,4.1c-2.6,1.5-5,3.2-7.4,5C391.3,514.9,389.2,518.3,389.2,530.4L389.2,530.4z
	 M522.4,450.6c3.3,1.5,7,2.1,10.7,1.7c3-0.3,5.9-0.8,8.8-1.5c5.4-1.2,6.3-1.4,8.3-1.5c2.8-0.2,4.8,0.2,6.3,1.4s2,2.7,1.3,4.2
	s-1,1.7-5,5.1c-3.5,2.9-5,4.8-5,7.1c0,7.3,1.3,10,7.8,15.6c3.9,3.3,5.9,6.8,5.3,9.6c-0.8,3.2-5,5-12.6,5c-7.2,0-12.7,4.6-20,14.7
	c-0.5,0.7-4,5.6-4.9,6.9c-1.4,2-3,3.8-4.7,5.5c-0.9,0.9-2,1.6-3.1,2.2c-2.8,1.3-5,1.6-9.8,1.7c-7.7,0.3-10.9,1.5-15,7.1
	c-3.5,5-8,9.2-13.3,12.3c-0.1,0.1-10.7,6.2-14.8,8.8c-3.8,2.4-6.5,2-8.2-0.8c-1.3-2-1.9-4.5-2.9-10.3c-0.8-5.1-1.3-7.1-2.1-8.9
	c-1-2.3-2.2-3.2-4-2.9c-6.2,1.2-9,1.4-11,0.2c-2.4-1.4-3.1-4.6-2.6-10.7c0.2-2-1-2.9-3.8-3c-2.2-0.1-4.9,0.2-9.9,1.1l-0.7,0.1
	c-8,1.5-10.7,1.7-12.7,0.7c-2.9-1.4-1.6-5.3,4.2-12.2c5.5-6.5,10.6-10.8,15.8-13.5c3.7-2,5.9-2.6,12.2-4.1c7.3-1.7,10.4-3.5,14-9.3
	c3-4.8,10.7-18.6,12.1-20.8c3.6-5.7,6.8-9.1,11-11.3c3.2-1.8,6.3-3.8,9.2-6.1l1.4-1c7.9-5.7,12.3-8,17.7-8c4.2,0,6.5,1.4,9.1,4.8
	c0.3,0.4,1.7,2.2,2,2.7c0.7,1,1.6,2,2.5,2.8C517.9,447.9,520,449.4,522.4,450.6L522.4,450.6z M522,451.5c-2.6-1.2-4.9-2.9-6.9-5
	c-0.9-0.9-1.7-1.9-2.5-2.9c-0.4-0.5-1.7-2.2-2-2.7c-2.5-3.2-4.5-4.4-8.3-4.4c-5.1,0-9.4,2.2-17.1,7.8l-1.4,1c-2.9,2.3-6,4.3-9.3,6.1
	c-4.1,2.1-7.2,5.5-10.7,11c-1.4,2.2-9.2,16-12.1,20.8c-3.8,6.1-7.1,8-14.7,9.8c-6.1,1.5-8.3,2.1-11.9,4c-5,2.7-10,6.9-15.5,13.3
	s-6.5,9.7-4.5,10.7c1.7,0.8,4.5,0.6,12.1-0.8l0.7-0.1c5.1-0.9,7.8-1.3,10.2-1.1c3.2,0.2,4.9,1.5,4.7,4.1c-0.5,5.8,0.2,8.6,2.1,9.8
	c1.7,1,4.3,0.9,10.3-0.3c2.4-0.5,4,0.8,5.1,3.5c0.8,2,1.3,4,2.1,8.8l0.1,0.4c0.9,5.7,1.5,8.1,2.7,10c1.5,2.3,3.5,2.6,6.8,0.5
	c4.1-2.7,14.7-8.8,14.8-8.8c3.1-1.8,5.9-4,8.5-6.5c1.7-1.7,3.2-3.5,4.6-5.5c4.3-6,7.8-7.2,15.7-7.5c4.7-0.2,6.8-0.5,9.5-1.7
	c1-0.5,2-1.2,2.8-2c1.7-1.6,3.3-3.4,4.6-5.4c1-1.3,4.4-6.2,4.9-6.9c7.5-10.3,13.2-15.1,20.8-15.1c7.2,0,11-1.6,11.6-4.2
	c0.5-2.3-1.4-5.5-5-8.6c-6.8-5.8-8.2-8.8-8.2-16.4c0-2.7,1.6-4.7,5.4-7.9s4.2-3.6,4.8-4.7s0.2-2-1-3c-2.2-1.9-4.7-1.6-13.8,0.4
	c-2.9,0.7-5.9,1.2-8.9,1.5C529.3,453.8,525.5,453.1,522,451.5L522,451.5z M494,447.6c5.6-2.8,9-2.2,12.9,1.4c0.6,0.5,2.6,2.5,3,2.9
	c4.2,3.9,8.1,5.7,14.3,5.7c11.4,0,14,1.4,16.1,8.1c0.3,0.8,1.3,4.6,1.7,5.6c0.8,2.6,1.7,5.1,2.7,7.6c2.1,5.2,2.6,8.3,1.7,10.2
	c-0.8,1.6-2.1,2.2-5.4,2.8c-1.3,0.1-2.6,0.4-3.8,0.9c-1.7,0.5-3.3,1.4-4.6,2.7c-1.2,1.2-2.3,2.4-3.3,3.7c-0.6,0.7-2.9,3.5-3.5,4.1
	c-7.2,8.5-12.4,12.4-19.6,12.4c-3.8,0-7,1.3-10.6,4c-1.8,1.4-11.6,10.3-15.2,13.1c-2.8,2.2-5.9,4.2-9,5.9c-4.6,2.5-7.4,3.2-9,2.2
	c-1.3-0.8-1.6-2.1-1.9-5.5c0-0.6-0.1-1.2-0.2-1.8c-0.5-4.7-2.2-6.9-7.2-6.9c-7.1,0-8.9-1.2-9.7-5.4c-1-4.6-2.1-6.7-6.5-9.7
	c-4-2.6-4.3-5.4-1.5-8.2c2-2,4.6-3.5,11.4-6.9c6.6-3.3,9.2-4.8,11.1-6.7c2-2,3.8-4.1,5.3-6.5c1.1-1.6,2-3.3,2.9-5.1l2.1-4.3
	c0.9-1.8,1.7-3.4,2.6-5C476.5,458.5,481.1,454.1,494,447.6z M471.6,469.3c-0.9,1.6-1.7,3.1-2.6,4.9l-2.1,4.3
	c-0.9,1.8-1.9,3.5-2.9,5.2c-1.6,2.4-3.4,4.6-5.4,6.6c-2,2-4.6,3.5-11.4,6.9c-6.6,3.3-9.2,4.8-11.1,6.7c-2.3,2.3-2.1,4.4,1.4,6.7
	c4.7,3.1,6,5.5,7,10.3c0.8,3.7,2.1,4.6,8.8,4.6c5.5,0,7.6,2.6,8.1,7.8c0.1,0.5,0.1,0.8,0.2,1.8c0.2,3.1,0.5,4.2,1.5,4.7
	c1.2,0.7,3.7,0.1,8-2.2c3.1-1.7,6-3.7,8.8-5.8c3.5-2.7,13.3-11.7,15.2-13.1c3.8-2.8,7.2-4.2,11.2-4.2c6.8,0,11.8-3.7,18.8-12
	l3.5-4.1c1.1-1.3,2.2-2.5,3.4-3.7c1.4-1.4,3.1-2.4,5-2.9c1.3-0.4,2.6-0.7,4-0.9c3-0.5,4.1-1,4.7-2.2c0.8-1.6,0.3-4.5-1.7-9.4
	c-1-2.5-1.9-5.1-2.7-7.7c-0.3-1-1.4-4.8-1.7-5.6c-2-6.2-4.2-7.4-15.1-7.4c-6.5,0-10.6-1.9-15-6c-0.4-0.4-2.5-2.4-3-2.9
	c-3.6-3.3-6.5-3.9-11.8-1.2C481.7,454.9,477.3,459.2,471.6,469.3L471.6,469.3z M527.5,481.3c-3,6.5-16.8,15.3-26.7,15.3
	c-5.3,0-7.6-3-7.1-7.9c0.5-3.8,1.8-7.4,3.9-10.6l1.5-2.3c0.6-0.9,1.2-1.8,1.9-2.7c3.7-4.8,7.9-7.5,13.6-7.5
	C523.7,465.6,530.4,475.1,527.5,481.3z M526.6,480.8c2.5-5.5-3.7-14.3-12-14.3c-5.4,0-9.3,2.5-12.8,7.1c-0.6,0.8-1.2,1.6-1.9,2.6
	c0,0-1.2,1.9-1.5,2.3c-2,3.1-3.3,6.5-3.8,10.1c-0.4,4.3,1.4,6.8,6.1,6.8C510.3,495.5,523.8,486.9,526.6,480.8L526.6,480.8z
	 M456.9,501.6c2.1,0.1,4.1,0.8,5.9,1.8c2.1,1.5,2.2,3.6-0.3,6c-5.1,5.1-12.9,4.3-12.9-1.4C449.7,503.4,452.8,501.2,456.9,501.6z
	 M456.8,502.6c-3.6-0.3-6.1,1.5-6.1,5.5c0,4.6,6.5,5.3,11.1,0.6c2-2,2-3.4,0.4-4.5C460.6,503.2,458.7,502.6,456.8,502.6z
	 M486.4,276.6c4.6,2.4,17.3,8.2,19.4,9.4c2.7,1.4,5.1,3.3,7,5.6c1.4,1.6,2.6,3.4,3.8,5.2c2.4,3.8,0,7.7-6.2,11.6
	c-5,3.2-12.2,6.3-22,9.8c-4.8,1.7-19.6,6.7-21.1,7.2c-6.6,2.3-14.9,0.1-25.1-5.9c-3.9-2.3-8-5-12.9-8.5c-2.2-1.6-9.5-7-10.7-7.9
	c-2.7-2.1-5.6-4-8.6-5.7c-4.8-2.6-4.5-6.6,0.2-12.1c3.3-3.9,4.2-4.7,18.1-16.3c3-2.5,6-5.1,8.9-7.7c1.6-1.5,3.2-3.1,4.7-4.7
	c5.1-5.4,9.8-6.5,15-3.9c2.7,1.5,5.2,3.4,7.4,5.5c1.5,1.4,6.9,6.7,8,7.7C477.4,271,481.7,274.3,486.4,276.6L486.4,276.6z M486,277.5
	c-4.9-2.5-9.2-5.8-14.4-10.8c-1-1-6.5-6.3-8-7.7c-2.2-2.1-4.6-3.9-7.2-5.4c-4.8-2.4-9-1.4-13.8,3.7c-1.5,1.6-3.1,3.2-4.8,4.7
	c-2.5,2.3-5.2,4.6-8.9,7.8c-13.9,11.6-14.8,12.4-18,16.2c-4.3,5.1-4.6,8.4-0.5,10.6c3,1.7,5.9,3.7,8.7,5.8c1.2,0.9,8.5,6.2,10.7,7.9
	c4.1,3.1,8.5,5.9,12.9,8.5c10.1,5.8,18.1,8,24.3,5.8c1.5-0.5,16.3-5.5,21.1-7.2c9.7-3.5,16.9-6.6,21.8-9.7c5.8-3.7,7.9-7.1,5.9-10.3
	c-1.1-1.8-2.3-3.5-3.7-5.1c-1.9-2.2-4.2-4.1-6.8-5.4C503.2,285.8,490.6,279.9,486,277.5L486,277.5z M447.1,285.6
	c2.8-0.4,5.7-0.1,8.4,0.7c2.1,0.7,2.7,0.9,8.6,3.8c4.3,2.1,8.7,4,13.2,5.6c8.4,3,11.3,6.2,8.8,9.8c-2.1,2.9-8,5.9-17.8,9.2
	c-8.5,2.8-15.5,2.4-21.4-0.9c-4.6-2.5-8.3-6.5-12.1-12.3c-2.9-4.4-2.7-8.2,0.2-11.1C437.4,287.8,441.8,286.2,447.1,285.6
	L447.1,285.6z M447.3,286.6c-5.1,0.6-9.3,2.2-11.6,4.4c-2.5,2.5-2.7,5.8,0,9.8c3.7,5.7,7.3,9.5,11.8,12c5.7,3.1,12.4,3.6,20.6,0.8
	c9.6-3.2,15.4-6.1,17.3-8.8s-0.5-5.5-8.4-8.2c-4.5-1.6-9-3.5-13.3-5.6c-5.8-2.8-6.4-3.1-8.5-3.7C452.7,286.4,450,286.2,447.3,286.6
	L447.3,286.6z M202.7,500.5c0,4.8-1.4,7.6-4.4,8.9c-2.3,1-4.6,1.2-10.8,1.2h-1.8c-9.2,0-17-7.6-17-15.5c0-7.6,10.6-10.5,19.7-5.4
	c2.8,1.5,4.2,1.9,8.6,2.8C201.5,493.2,202.7,494.7,202.7,500.5z M201.7,500.5c0-5.3-0.9-6.3-4.9-7.1c-4.4-0.8-6-1.2-8.9-2.9
	c-8.6-4.8-18.3-2.1-18.3,4.6c0,7.3,7.4,14.5,16,14.5h1.8c6.1,0,8.3-0.1,10.4-1.1C200.4,507.3,201.7,504.9,201.7,500.5z M235,382.6
	c3.7-1.3,8.7-2.7,16.1-4.5c2.6-0.6,16.5-4,20.6-5c19.6-4.9,31.5-8.9,38.2-13.4c14.9-10,36.9-33.9,43.8-47.8c2.2-4.5,4.6-6.4,7.7-6.2
	c1.5,0.2,2.9,0.6,4.3,1.2c1.2,0.5,2.4,1.1,3.5,1.7l1.3,0.6c4.8,2.3,8.4,3.4,12.6,3.4c7.2,0,10,3.1,8.4,7.9c-1.4,4.1-5.9,8.9-11.1,12
	c-8.3,5-11.8,17.3-11.8,33.6c0.1,3.3-1.4,6.4-4,8.4c-2,1.6-4.2,2.6-8.5,4.2l-1,0.4c-4.9,1.8-7,2.8-8.7,4.5
	c-5.1,5.1-12.5,7.1-20.4,7.1c-1.4,0-2.5,0.9-4,3.1c-0.3,0.4-1.3,2-1.5,2.2c-2.7,3.9-4.9,5.7-8.5,5.7c-7.8,0-10.7,0.9-21.8,6.9
	c-5.2,2.8-8.8,3.6-14.7,3.7h-0.9c-4.8,0.1-7.1,0.3-10.5,1.3c-3,1-6,2.2-8.9,3.6c-2.2,1-10.5,5-10.2,4.9c-7.8,3.7-13.3,6-18.9,7.6
	c-12.4,3.5-18.6,2.2-27.4-4.1c-2.6-1.9-2.7-4.4-0.8-7.6c1.4-2.5,3.9-5.1,8.1-9l1.8-1.6c3.9-3.6,4.5-4.1,5.9-5.5
	c2.3-2.3,3.1-3.5,5.5-7.6c1.4-2.9,3.6-5.3,6.3-7.1C228.5,385.3,231.6,383.7,235,382.6L235,382.6z M235.4,383.6
	c-3.2,1-6.3,2.5-9.2,4.3c-2.5,1.7-4.6,4-6,6.7c-2.4,4.2-3.2,5.4-5.6,7.8c-1.4,1.4-2,2-5.9,5.6l-1.8,1.6c-4.1,3.8-6.5,6.4-7.9,8.8
	c-1.6,2.8-1.5,4.8,0.6,6.3c8.6,6.1,14.5,7.4,26.6,3.9c6.4-2,12.7-4.5,18.7-7.5c-0.3,0.1,8.1-3.9,10.2-4.9c2.9-1.4,5.9-2.6,9-3.6
	c3.5-1.1,5.9-1.3,10.8-1.4h0.9c5.7-0.1,9.2-0.8,14.2-3.6c11.2-6.1,14.2-7.1,22.2-7.1c3.2,0,5.2-1.6,7.7-5.3l1.5-2.2
	c1.7-2.4,3-3.5,4.8-3.5c7.6,0,14.8-2,19.6-6.9c1.8-1.8,4-2.9,9-4.7l1-0.4c8.6-3.1,11.8-5.7,11.8-11.6c0-16.6,3.5-29.2,12.2-34.4
	c5-3,9.4-7.7,10.7-11.5c1.4-4.1-0.8-6.6-7.4-6.6c-4.5,0-8.2-1.1-13.1-3.5c-7.5-3.7-6.8-3.3-8.7-3.4c-2.6-0.1-4.6,1.5-6.7,5.7
	c-7,14.1-29.1,38.1-44.2,48.2c-6.8,4.5-18.8,8.5-38.5,13.5c-4,1-18,4.4-20.6,5C244,380.9,239,382.3,235.4,383.6L235.4,383.6z
	 M252.2,387.6c2.4,0,4.8-0.3,7.2-0.7c5.2-0.8,6.6-0.9,8.5-0.5c2.5,0.6,3.8,2.4,3.8,5.7c0,4-2.3,7.3-6.6,10.1
	c-3.2,2.1-6.5,3.5-14.1,6.4l-0.3,0.1l-2.3,0.9c-3.3,1.4-6.5,3.2-9.3,5.4l-0.8,0.6c-8.2,5.9-13.4,8-23.1,8c-5,0-6.9-2-5.8-5.6
	c0.9-2.8,3.6-6.6,7.8-11.1c1.3-1.4,2.6-2.8,4.1-4.3c3.2-3.1,11.2-10.6,11.4-10.8c0.4-0.5,0.9-0.9,1.4-1.3c3.4-2.7,5.8-3.1,14.2-2.9
	L252.2,387.6z M252.2,388.6h-3.8c-8.2-0.1-10.4,0.2-13.5,2.7c-0.5,0.4-0.9,0.8-1.3,1.2c-0.2,0.2-8.3,7.7-11.4,10.8
	c-1.4,1.4-2.8,2.8-4.1,4.3c-4.1,4.5-6.8,8.1-7.6,10.8c-0.9,2.9,0.4,4.3,4.8,4.3c9.5,0,14.4-2.1,22.5-7.8l0.8-0.6
	c4.1-3,6.4-4.4,9.6-5.6l2.3-0.9l0.2-0.1c7.5-2.8,10.8-4.2,14-6.3c4.1-2.6,6.2-5.6,6.2-9.3c0-2.9-1-4.3-3-4.7c-1.6-0.4-3-0.2-8.1,0.5
	C257.3,388.3,254.7,388.6,252.2,388.6z M364.7,343.3c-1.9,5.4-2,6.8-1,12.8c1.2,7.1-1.4,16.6-5.5,16.6c-0.5,0-1,0-1.5,0.1h-0.6
	c-2.3,0.2-4.6,0.2-6.9-0.2c-6.5-1.1-10.4-5.1-10.4-13.4c0-13.9,2.1-19.7,8.1-26.3c1-1.2,1.8-2.4,2.5-3.8c0.6-1,2.8-5.1,2.7-5
	c4.4-8.1,7.7-11.5,12.2-10.4c1.3,0.4,2.5,0.9,3.6,1.6l1.4,0.8c1,0.6,2,1.2,3.1,1.6c0.7,0.3,1.8,0.3,4.8,0.3h0.7
	c3.2,0,4.8,0.1,5.8,0.7c1.6,0.9,1.2,2.6-1.1,4.9c-1.3,1.3-2.6,2.5-3.9,3.8C368.1,337.3,365.9,339.6,364.7,343.3L364.7,343.3z
	 M363.7,342.9c1.3-3.9,3.5-6.2,14.3-16.5c1.5-1.5,2.7-2.6,3.9-3.7c1.9-2,2.2-2.9,1.4-3.3s-2.4-0.6-5.3-0.5h-0.7
	c-3.1,0.1-4.3,0-5.1-0.3c-1.1-0.4-2.2-1-3.2-1.7l-1.4-0.8c-1-0.7-2.1-1.2-3.3-1.5c-3.9-1-6.9,2.2-11.1,9.9c0.1-0.1-2.1,4-2.7,5
	c-0.7,1.4-1.6,2.7-2.6,3.9c-5.8,6.5-7.9,12-7.9,25.7c0,7.8,3.5,11.5,9.6,12.5c2.2,0.3,4.5,0.3,6.7,0.2c0.4,0,0.8,0,1.2-0.1h1
	c3.2,0,5.6-8.9,4.5-15.4C361.7,350,361.8,348.5,363.7,342.9L363.7,342.9z M354.5,355.4c0.6,0.5,2.5,1.9,2.5,1.9c2,1.6,2,3.3,0,6.4
	c-3.7,5.6-8.8,3.1-8.8-4.5c0-3.8,0.5-5.7,2.1-6C351.4,352.8,352.3,353.4,354.5,355.4L354.5,355.4z M353.1,356.8
	c-1.5-1.4-2.2-1.9-2.4-1.8s-0.5,1.2-0.5,4.1c0,5.9,2.7,7.2,5.2,3.5c1.5-2.3,1.5-2.8,0.4-3.7C354.9,358.3,354,357.6,353.1,356.8z
	 M576,226.7c1.9-1,3.9-1.8,5.9-2.4l0.3-0.1c3-0.9,6-2.1,8.8-3.6c4.2-2.1,6.3-1.9,7,0.8c0.4,2,0.2,4-1.2,12.7
	c-2.3,13.6-9.2,26.1-21.2,36.3c-4.3,3.6-7.4,4.4-9.8,2.4c-1.9-1.6-3.1-4.6-4.6-10.5c-0.3-1.1-1.4-5.8-1.7-7
	c-0.8-3.1-1.7-6.2-2.7-9.2c-2.4-6.8-3-10.8-2.1-12.9c0.8-1.8,2.1-2.2,5.6-2.4c1,0,2-0.1,3-0.3l2-0.3c0.7-0.1,1.2-0.2,1.7-0.3
	c1.1-0.2,1.9-0.4,2.7-0.6C571.9,228.6,574,227.8,576,226.7L576,226.7z M576.5,227.6c-2.1,1.1-4.4,2.1-6.7,2.8
	c-0.8,0.2-1.7,0.4-2.8,0.6l-3.8,0.6c-0.8,0.1-1.4,0.2-2.9,0.3c-3.1,0.2-4.2,0.5-4.7,1.9c-0.8,1.8-0.2,5.6,2.1,12.2
	c1,3.1,2,6.2,2.7,9.3l1.7,7c1.5,5.7,2.6,8.6,4.3,10c1.9,1.6,4.5,0.9,8.5-2.4c11.8-10,18.6-22.3,20.8-35.7c1.4-8.4,1.7-10.5,1.2-12.3
	s-1.9-2-5.5-0.2c-2.8,1.5-5.8,2.7-8.9,3.6l-0.3,0.1C580.2,225.8,578.3,226.6,576.5,227.6z M572,234.1c1.3-0.3,2.7-0.8,3.9-1.4
	c0.3-0.2,2.6-1.3,3.3-1.7c1.5-0.7,3-1.3,4.7-1.9c2.7-0.9,4.6-0.8,5.9,0.4c1,0.9,1.3,2.3,1.4,4.2v1.4c0,5.6-4.6,16.9-11.3,22.8
	c-4.3,3.8-7.3,4.7-9.9,2.5c-2.1-1.7-3.5-4.6-6.7-12.9c-1.9-4.8-2-8.1-0.7-10.2c1.1-1.7,2.9-2.4,5.8-2.7l1.3-0.1L572,234.1z
	 M569.9,236.4l-1.2,0.1c-2.4,0.3-3.7,0.8-4.4,1.8c-0.9,1.4-0.8,4.1,0.9,8.4c3,7.8,4.4,10.7,6.1,12.1s3.6,0.8,7.3-2.5
	c6.3-5.5,10.7-16.2,10.7-21.2v-1.3c0.1-1-0.2-2-0.8-2.8c-0.6-0.6-1.8-0.6-3.9,0c-1.5,0.5-3,1.1-4.5,1.8c-0.7,0.3-2.9,1.5-3.3,1.7
	c-1.4,0.7-2.8,1.2-4.3,1.6C571.8,236.2,571.2,236.3,569.9,236.4L569.9,236.4z M342.1,147.5c-1.6,4.3-3.5,7.2-7.1,11.4l-2.6,3
	c-0.9,1-1.8,2.1-2.6,3.2c-1.8,2.3-3.4,4.9-4.7,7.5c-2.9,5.7-7.4,10.5-12.9,13.9c-4.2,2.8-8.2,4.6-15.7,7.6
	c-11,4.4-16.4,1.3-27.2-16.4c-2.9-4.7-8.8-8.6-18-12.7c-3-1.3-12.9-5.2-14.4-5.9c-5-2.2-7-3.7-6.4-5.9s5.3-4.1,15.5-6.1
	c16.6-3.3,26.9-3.8,39.9-3c7.9,0.5,9.7,0.5,12.7-0.3c2.1-0.5,4.2-1.4,6-2.6l2.8-1.7c9.9-6.1,12.9-8,17.3-9.9
	c6-2.7,10.6-3.3,13.9-1.4C345.9,132.3,346.4,135.9,342.1,147.5L342.1,147.5z M340.3,146.8c4-10.7,3.6-13.3-2.6-16.8
	c-2.7-1.5-6.6-1-12.1,1.5c-4.2,1.9-7.3,3.7-17.1,9.8l-2.8,1.7c-2,1.3-4.3,2.2-6.6,2.8c-3.4,0.8-5.2,0.8-13.3,0.3
	c-12.8-0.8-23-0.3-39.4,3c-3.7,0.7-7.3,1.6-10.8,2.8c-2,0.8-3,1.4-3.2,1.9s1.5,1.8,5.3,3.5c1.5,0.7,11.4,4.6,14.4,5.9
	c9.5,4.2,15.7,8.3,18.9,13.4c10.4,16.9,14.9,19.6,24.8,15.6c7.3-2.9,11.2-4.8,15.3-7.4c5.2-3.2,9.3-7.7,12.1-13.1
	c1.3-2.8,3-5.4,4.9-7.8l2.7-3.3l2.6-3C336.9,153.5,338.8,150.8,340.3,146.8z M333.6,146.4c-7.9,12.8-18.5,21.8-33.3,25.2
	c-7.8,1.8-12.5-0.8-13.1-5.9c-0.5-4.4,2.3-9.1,6-9.1c3,0,5.6-1.7,15.4-9.2c1.5-1.1,2.6-2,3.7-2.7c4.4-3.2,7.8-5.2,10.8-6.1
	c5.6-1.7,9.3-2.1,11.4-1.2C336.9,138.5,336.6,141.5,333.6,146.4z M332.8,145.8c2.7-4.4,2.9-6.7,1.2-7.5s-5.3-0.3-10.6,1.3
	c-2.9,0.9-6.2,2.8-10.5,5.9c-1.1,0.8-2.2,1.6-3.6,2.7c-10.1,7.7-12.6,9.4-16,9.4c-3,0-5.5,4-5,7.9c0.6,4.5,4.6,6.8,11.9,5.1
	C314.6,167.2,325,158.4,332.8,145.8L332.8,145.8z M461.4,33.6c13.9,5,20.8,5,31.6,0c3-1.4,5.5-2.9,11-6.8s8-5.5,11.1-6.9
	c4.1-1.9,7.8-2.4,11.2-1.3c3.9,1.3,6.2,12.3,6.8,28.5c0.5,14.2-0.5,28.9-2.5,34.2c-1.8,4.9-5.9,8.2-11.5,10c-4.2,1.3-8.6,1.9-13,1.8
	c-5.8,0-9,2.4-12.2,7.6c-0.4,0.6-1.5,2.6-1.7,2.9c-1.8,2.9-3,4.3-4.9,4.9c-1.3,0.5-2.6,1-3.9,1.7l-2.4,1.2c-1,0.5-1.9,0.9-2.7,1.3
	c-6.4,3.1-11.7,4.7-17.2,4.7c-5.7,0-10,2.1-14,5.9c-1.2,1.1-4.2,4.5-4.6,4.9c-2.5,2.4-5.9,4.2-10.9,6.1c-1.4,0.5-6,2.1-6.2,2.2
	l-2.1,0.8c-0.9,0.4-1.8,0.6-2.7,0.8c-5.5,1.1-11.1-0.5-18-4.4c-1.3-0.7-5.1-3.1-5.8-3.4c-2-1.2-4.1-1.5-9.1-1.9l-1.7-0.1
	c-4.8-0.4-7.7-1.1-10.2-3c-5-3.6-6.8-7.8-5.6-12.3c1.3-5.4,6.5-11,14.9-17.3c2.1-1.6,4.3-3.1,6.5-4.6c-0.3,0.2,4.3-2.9,5.3-3.6
	c2.7-1.9,4.8-3.9,12.8-12l1.1-1.1c3.5-3.6,5.9-5.9,8.1-7.8c2.9-2.5,4.7-6,7.5-13L427,52c2.7-6.9,4.3-10,6.9-12.3
	c1.4-1.3,6.7-6.5,7.9-7.5C445.8,29.2,449.8,29.5,461.4,33.6L461.4,33.6z M461,34.6c-11.3-4-15-4.3-18.6-1.5
	c-1.2,0.9-6.4,6.1-7.9,7.4c-2.4,2.2-4,5.2-6.6,12l-0.6,1.6c-2.8,7.3-4.7,10.8-7.8,13.4c-3.2,2.8-6.2,5.8-9.2,8.9
	c-8,8.2-10.1,10.2-12.9,12.2c-1,0.7-5.6,3.8-5.3,3.6c-2.5,1.7-4.5,3.1-6.5,4.6c-8.2,6.1-13.2,11.6-14.5,16.7
	c-1,4.2,0.6,7.9,5.3,11.3c2.4,1.7,5.1,2.4,9.7,2.8l1.7,0.1c5.1,0.4,7.3,0.8,9.5,2c0.6,0.4,4.5,2.7,5.8,3.4c6.7,3.8,12,5.4,17.3,4.3
	c0.9-0.2,1.7-0.4,2.5-0.8c0.7-0.3,1.4-0.5,2.1-0.8c0.3-0.1,4.9-1.7,6.2-2.2c4.8-1.8,8.1-3.6,10.5-5.9c0.4-0.4,3.4-3.8,4.6-4.9
	c4.2-4,8.7-6.2,14.7-6.2c5.2,0,10.4-1.6,16.7-4.6c0.8-0.4,1.6-0.8,2.7-1.3c0.8-0.4,1.6-0.8,2.4-1.2c1.3-0.7,2.6-1.3,4-1.8
	c1.6-0.5,2.8-1.8,4.4-4.5l1.7-2.9c3.4-5.5,6.9-8.1,13.1-8.1c4.3,0.1,8.5-0.5,12.6-1.8c5.4-1.8,9.2-4.8,10.9-9.4
	c1.9-5.1,2.9-19.8,2.4-33.8c-0.6-15.5-2.8-26.5-6.1-27.5s-6.6-0.5-10.5,1.2c-3,1.4-5.5,2.9-11,6.8s-8,5.5-11.1,6.9
	C482.3,39.6,475.2,39.6,461,34.6L461,34.6z M475.2,55.1c5.4,0,7.5-0.2,9.7-1c1.3-0.4,10-4.8,14.9-7c1.9-0.8,3.6-2.4,6.6-6
	c1.3-1.7,2.8-3.3,4.4-4.8c3.7-3.3,7.1-3.3,10.2,1.2c6.2,8.9,5.6,15.9,0.1,27c-0.9,1.8-1.7,3.6-2.5,5.5c-0.3,0.8-1,2.7-1.1,2.9
	c-0.2,0.4-0.3,0.8-0.5,1.2c-0.6,1.1-1.6,2.2-4,4.7s-5.2,3.3-11.7,4.3c-1.8,0.3-2.2,0.4-3,0.5c-6,1.1-9.6,2.7-12.2,6.1
	c-3.6,4.6-7.9,7.5-15,10.7c-0.5,0.2-1.1,0.5-1.8,0.8l-1.8,0.8c-2.7,1.1-5.2,2.4-7.7,3.9c-2.6,1.6-4.8,2.3-9.4,3.5
	c-8.6,2.1-12.3,3.8-17.4,9.4s-10.2,7.6-16.6,6.7c-5.4-0.8-10.6-3-23.6-9.5c-6.3-3.2-6.4-7.8-1.5-13.6c3.4-3.9,3.5-4.1,19.4-16.4
	c8.1-6.3,13-10.6,16.6-14.9c2.2-2.4,3.9-5.2,5-8.3c5.5-18.3,12.5-22,22.8-15.6c2,1.2,6.6,4.5,7.2,4.9
	C465.6,54.3,468.7,55.1,475.2,55.1z M475.2,57.1c-6.8,0-10.4-0.9-14.1-3.3c-0.6-0.4-5.3-3.7-7.2-4.9c-9-5.7-14.7-2.7-19.8,14.5
	c-1.2,3.3-3,6.4-5.4,9c-3.8,4.4-8.7,8.8-16.9,15.2c-15.7,12.2-15.9,12.4-19.1,16.2c-4.2,4.9-4.1,8,0.9,10.5
	c12.7,6.3,17.9,8.5,22.9,9.3c5.8,0.8,10.2-0.9,14.9-6.1c5.4-6,9.5-7.8,18.4-10c4.4-1.1,6.5-1.8,8.8-3.2c2.5-1.5,5.2-2.9,7.9-4
	l1.8-0.8l1.8-0.8c6.8-3.1,10.9-5.9,14.2-10.1c3-3.9,7-5.6,13.5-6.8c0.8-0.2,1.2-0.2,3-0.5c6.1-1,8.6-1.8,10.6-3.8
	c2.4-2.4,3.2-3.3,3.7-4.3c0.2-0.3,0.3-0.6,0.4-0.9c0.1-0.2,0.8-2.1,1.1-2.9c0.6-1.6,1.5-3.4,2.6-5.6c5.2-10.5,5.8-16.8,0.1-25
	c-2.4-3.4-4.4-3.5-7.2-0.9c-1.5,1.5-2.9,3-4.2,4.7c-3.2,3.8-5,5.6-7.3,6.6c-4.8,2.1-13.6,6.5-15,7C483.1,56.9,480.8,57.1,475.2,57.1
	z M462.5,65.7c5.5,3.9,10.3,3.7,18.2,0.9c5.4-1.9,5.9-2.1,7.7-2.1c2.5,0,4.2,1.4,5.2,4.5c1.7,5-2.3,8.5-12.3,12.7
	c-2.7,1.1-16.2,6.2-20,7.7c-7.9,3.2-13.9,6.4-18.9,10.2c-13,9.8-18.4,11.9-23.7,9.7c-1.3-0.5-2.5-1.2-3.6-2l-2-1.3
	c-0.7-0.5-1.5-0.9-2.2-1.4c-3.3-2-2.8-4.3,0.9-7.3c1.4-1.1,10.7-7.6,13.5-9.9c7.1-5.7,11.9-11.5,14.4-18.3
	c3.1-8.5,4.9-12.1,6.8-13.4c1.7-1.2,3.4-0.5,6.2,1.9c0.6,0.6,3.4,3.1,4.1,3.7C458.8,62.8,460.5,64.3,462.5,65.7L462.5,65.7z
	 M461.9,66.5c-2-1.4-3.9-3-5.7-4.6c-0.7-0.6-3.5-3.2-4.1-3.7c-2.5-2.2-3.8-2.7-5-1.8c-1.7,1.1-3.4,4.7-6.4,12.9
	c-2.6,7.1-7.5,13-14.7,18.8c-2.9,2.3-12.2,8.8-13.5,9.9c-3.2,2.7-3.6,4.2-1,5.7l2.3,1.4l2,1.3c1.1,0.7,2.3,1.4,3.5,1.9
	c4.9,2.1,10,0.1,22.7-9.6c5-3.8,11.1-7,19.1-10.3c3.8-1.6,17.3-6.6,20-7.7c9.5-4,13.1-7.2,11.7-11.4c-0.9-2.7-2.2-3.8-4.3-3.8
	c-1.6,0-2.1,0.2-7.4,2.1C472.9,70.5,467.7,70.7,461.9,66.5z"/>
</svg>
